<svg width="73" height="88" viewBox="0 0 73 88" fill="none" xmlns="http://www.w3.org/2000/svg">
<g clip-path="url(#clip0_21_66)">
<path d="M37.4352 3.52856L34.7732 0H33.7022H33.381H32.9528V0.335962L33.381 0.641498V5.81976H34.7732V2.32194L37.4504 5.81976H38.8271V0H37.4352V3.52856Z" fill="#1D428A"/>
<path d="M27.6901 6.70562L31.6828 6.00327L31.484 4.81155L28.9291 5.25464L28.7304 4.13963L30.8108 3.77292L30.719 3.25345L30.5968 2.58152L28.5161 2.94823L28.3326 1.89406L30.6578 1.49693L30.7651 0.244362L26.9864 0.916604L26.6804 0.962244L26.2671 1.03863L26.3284 1.37491L26.7874 1.60374L27.6901 6.70562Z" fill="#1D428A"/>
<path d="M21.0505 8.87485L23.1005 8.12637C24.9975 7.43899 25.7318 5.88092 25.1505 4.27704C24.5691 2.67315 23.0087 1.95522 21.0964 2.6426L19.2912 3.29943L19.0617 3.37581L18.6028 3.54384L18.7252 3.86462L19.3065 4.03264L21.0505 8.87485ZM20.8516 4.03264L21.586 3.77296C22.3356 3.49801 23.3453 3.60493 23.7736 4.79639C24.202 5.97258 23.4983 6.70578 22.7486 6.98074L22.0143 7.24041L20.8516 4.03264Z" fill="#1D428A"/>
<path d="M15.7879 11.7619L19.3983 9.66906L19.0463 8.40128L16.4151 9.91343L14.1509 5.98774L13.2024 6.52243L12.8812 6.72115L12.56 6.90435L12.7282 7.19467L13.1872 7.24031L15.7879 11.7619Z" fill="#1D428A"/>
<path d="M12.2387 10.4482C11.1525 9.19562 9.3167 8.98178 7.87866 10.2343C6.44061 11.4869 6.39472 13.3199 7.4809 14.5725C8.56708 15.825 10.4029 16.0542 11.8409 14.8016C13.2943 13.549 13.3402 11.7007 12.2387 10.4482ZM8.62826 13.5949C7.95514 12.8158 7.95514 11.8535 8.72005 11.1967C9.46967 10.5398 10.4488 10.662 11.1219 11.4411C11.795 12.2048 11.795 13.1977 11.0301 13.8545C10.2652 14.5114 9.28609 14.3586 8.62826 13.5949Z" fill="#1D428A"/>
<path d="M6.33351 15.3821L5.18613 16.8485L4.88017 17.2303L4.39062 17.8566L5.30852 18.5746L6.22642 17.4137C6.35951 17.6856 6.41152 17.99 6.37626 18.2906C6.341 18.5912 6.21996 18.8753 6.02754 19.1092C5.40031 19.9035 4.42122 19.9493 3.6257 19.323C2.81489 18.6968 2.63131 17.7344 3.25854 16.9401C3.35384 16.822 3.46155 16.7145 3.5798 16.6193C3.74319 16.4919 3.93044 16.3985 4.13054 16.3444L4.60478 15.7334L5.20141 14.9696L5.23201 14.9391C5.20141 14.9391 5.17082 14.9238 5.14022 14.9238C4.62893 14.8547 4.10844 14.9182 3.62884 15.1081C3.14924 15.2981 2.72668 15.6081 2.40184 16.0083C2.35224 16.0612 2.30624 16.1173 2.26415 16.1764C1.08618 17.6733 1.39215 19.4911 2.70781 20.5145C4.02346 21.5379 5.85926 21.4005 7.03724 19.9035C7.08313 19.8577 7.11374 19.7966 7.15963 19.7507C7.5144 19.2848 7.7239 18.7249 7.76199 18.1409C7.80008 17.5568 7.66506 16.9745 7.3738 16.4666C7.32333 16.3716 7.26713 16.2798 7.20552 16.1916C7.02585 15.9559 6.82063 15.7407 6.59358 15.5501C6.4865 15.489 6.41 15.4279 6.33351 15.3821Z" fill="#1D428A"/>
<path d="M45.8645 4.39923L46.3693 4.87275C46.7976 5.2699 47.0118 5.46848 46.92 5.77398C46.8588 6.01839 46.5529 6.14059 46.1245 6.01839C45.5274 5.80513 45.0204 5.39584 44.6865 4.85747L44.2581 6.32389C44.724 6.75853 45.2923 7.06855 45.9103 7.22512C47.0271 7.5459 48.1133 7.14873 48.4346 6.06421C48.6793 5.2088 48.2204 4.62835 47.5931 4.04789L47.0118 3.48271C46.7364 3.22304 46.6752 3.05501 46.7364 2.85643C46.7976 2.61203 47.0883 2.52038 47.4555 2.61203C48.0092 2.79523 48.4945 3.14134 48.8476 3.60491L49.2301 2.27599C48.8018 1.88777 48.2883 1.60525 47.7309 1.45113C46.5223 1.0998 45.5432 1.63443 45.2831 2.56621C45.0536 3.22304 45.2525 3.83405 45.8645 4.39923" fill="#1D428A"/>
<path d="M50.6986 8.95119L52.0451 9.57747L53.9878 5.3922L55.6556 6.17125L56.1603 5.07145L51.4944 2.90228L50.9894 4.00208L52.6568 4.76592L50.6986 8.95119Z" fill="#1D428A"/>
<path d="M54.4621 10.0358L54.1102 10.5551L55.1199 11.2272L55.5483 10.7537L56.1908 10.4329L57.0934 11.0287L57.996 11.6244L57.9348 12.3423L57.6594 12.9075L58.6691 13.5949L59.021 13.0755L60.352 7.71396L59.6635 7.24044L59.1128 6.87384L58.9598 6.76691L58.5009 6.46141L58.302 6.75164L58.455 7.14879L54.4621 10.0358ZM58.8221 8.46243L58.2867 10.4635L57.7206 10.0816L57.1546 9.6997L58.8221 8.46243Z" fill="#1D428A"/>
<path d="M62.1266 10.5245L63.4728 11.7923L60.3214 15.1681L61.4076 16.1763L64.5591 12.8005L65.9053 14.0378L66.7315 13.1672L62.9526 9.65385L62.1266 10.5245Z" fill="#1D428A"/>
<path d="M66.3795 18.1467L67.68 19.812L68.6284 19.0785L67.3279 17.4136L68.1694 16.7569L69.6226 18.6202L70.7701 18.1315L68.3837 15.0765L68.399 15.0613L67.94 14.4809L67.68 14.6946L67.6952 15.26L63.6258 18.4523L66.1195 21.6449L67.068 20.8962L65.477 18.8494L66.3795 18.1467Z" fill="#1D428A"/>
<path d="M70.8925 42.419C70.8925 49.3314 68.8397 56.0885 64.9935 61.8359C61.1474 67.5833 55.6807 72.0629 49.2849 74.7081C42.889 77.3534 35.8511 78.0455 29.0613 76.697C22.2714 75.3484 16.0345 72.0198 11.1393 67.132C6.24414 62.2443 2.91046 56.0169 1.55988 49.2373C0.209296 42.4578 0.902465 35.4306 3.55173 29.0444C6.20099 22.6582 10.6874 17.1999 16.4435 13.3596C22.1997 9.51929 28.9671 7.46954 35.8899 7.46954C45.173 7.4702 54.0757 11.1526 60.6398 17.7067C67.2039 24.2609 70.8919 33.15 70.8925 42.419Z" fill="#1D428A"/>
<path d="M58.7762 19.5522C55.7712 16.5494 52.2031 14.1672 48.2757 12.5416C44.3484 10.916 40.1388 10.0789 35.8874 10.0781C31.636 10.0773 27.4261 10.9128 23.4981 12.5369C19.5702 14.161 16.0012 16.5419 12.995 19.5435C9.98876 22.5452 7.60427 26.1088 5.9777 30.0308C4.35112 33.9527 3.51434 38.1563 3.51514 42.4012C3.51594 46.6462 4.35431 50.8494 5.98237 54.7708C7.61042 58.6921 9.99626 62.2548 13.0036 65.2553C16.0087 68.2581 19.5768 70.6403 23.5041 72.2659C27.4314 73.8915 31.641 74.7286 35.8924 74.7294C40.1439 74.7302 44.3538 73.8947 48.2817 72.2706C52.2097 70.6465 55.7787 68.2656 58.7849 65.264C61.7911 62.2623 64.1756 58.6987 65.8021 54.7767C67.4287 50.8548 68.2655 46.6512 68.2647 42.4063C68.2639 38.1613 67.4255 33.9581 65.7975 30.0367C64.1694 26.1154 61.7836 22.5527 58.7762 19.5522ZM14.2428 20.7894C19.3103 15.742 25.9883 12.6261 33.117 11.9828C40.2458 11.3396 47.375 13.2096 53.2667 17.2682C59.1584 21.3267 63.4404 27.3175 65.3691 34.2001C67.2978 41.0827 66.7514 48.4224 63.8247 54.9446C60.1072 53.6921 56.4509 52.2868 52.8711 50.6981C52.3968 50.4843 51.9226 50.2857 51.4636 50.0719L50.0715 49.415L49.3677 49.079L48.6793 48.7429L47.3025 48.0555C46.8435 47.8264 46.3846 47.582 45.9409 47.3376L45.2525 46.971C45.023 46.8488 44.8088 46.7266 44.5794 46.6044L43.2331 45.8559L41.9021 45.0769C38.3401 43.0046 34.9302 40.682 31.6981 38.1267C30.0918 36.8436 28.5161 35.5147 27.0321 34.0941C26.2825 33.3914 25.5635 32.6582 24.8598 31.9097C24.6915 31.7264 24.5079 31.5431 24.3396 31.3446C24.1714 31.1613 24.0031 30.9627 23.8348 30.7641C23.6665 30.5655 23.4982 30.3822 23.3452 30.1836C23.3452 30.1684 23.3299 30.1684 23.3299 30.1531C23.2688 27.9077 23.2382 26.5634 23.2382 26.5634L21.7083 26.1968V28.2437H20.408V26.0899L18.7711 26.4871L18.7864 27.2661L18.0215 27.6785C18.0368 28.3201 18.0521 29.1602 18.0674 30.1531C17.4401 31.2376 10.663 42.9384 5.58391 46.5433C5.39472 45.1612 5.29761 43.7681 5.29324 42.3732C5.27585 38.3626 6.05821 34.3886 7.59473 30.6829C9.13125 26.9773 11.3912 23.6141 14.2428 20.7895L14.2428 20.7894ZM54.4621 57.4039L51.3106 57.5109L48.7405 50.8662L49.2454 51.1106L50.6528 51.8132C51.1271 52.0424 51.6013 52.2562 52.0756 52.4853C52.2133 52.5464 52.3509 52.6076 52.4733 52.6687L54.4621 57.4039ZM53.6972 53.2338C54.967 53.8143 56.252 54.3642 57.5371 54.8988L58.5927 57.2512L55.4259 57.3581L53.6972 53.2338ZM50.3316 57.5414L47.1036 57.6483L43.7533 48.1472C43.9674 48.2694 44.1816 48.3916 44.3958 48.5138L45.0842 48.8957C45.5432 49.1554 46.0021 49.3998 46.4611 49.6594L47.5167 50.2246L50.3316 57.5414ZM46.1704 57.6789L43.2943 57.7705L39.1026 45.2755C39.7451 45.6879 40.3876 46.1003 41.0455 46.4975L42.3917 47.3223L42.5753 47.4293L46.1704 57.6789ZM42.3305 57.8164L39.3167 57.9233L34.3448 41.9913C35.4922 42.8467 36.6701 43.6716 37.8481 44.4812L42.3305 57.8164ZM38.3682 57.9538L35.4616 58.0455L29.5411 38.142C29.9542 38.5086 30.3825 38.8599 30.8109 39.2113C31.5605 39.8375 32.3101 40.4333 33.0903 41.029L38.3682 57.9538ZM34.5284 58.076L31.3157 58.183L24.2479 32.9943C24.8598 33.6817 25.5023 34.3385 26.1602 34.9953C26.8486 35.6827 27.5523 36.3395 28.256 36.9964L34.5284 58.076ZM30.3825 58.2135L27.5982 58.3052L23.7124 43.5188C23.59 39.7001 23.483 36.1868 23.4065 33.3456L30.3825 58.2135ZM26.665 58.3357L24.2632 58.4121C24.1102 54.8988 23.9725 51.2022 23.8501 47.6126L26.665 58.3357ZM60.6273 60.459C60.4132 60.7339 60.2143 61.0241 59.9848 61.2991L24.3856 60.5964L24.3703 60.2604L60.6273 60.459ZM59.5717 57.2359L58.7609 55.4029C60.1072 55.9528 61.4687 56.4721 62.8303 56.961C62.7997 57.0068 62.7691 57.0679 62.7385 57.1137L59.5717 57.2359ZM21.6931 34.8731V36.752H20.2703V38.4933H21.6931V40.3722H20.2703V42.1135H21.6931V45.6421H20.2703V47.3835H21.6931V51.0189H20.2703V52.7603H21.6931V58.4732L20.3774 58.519V31.925H21.6778V33.1012H20.255V34.8425H21.6931V34.8731ZM7.95514 54.9599L11.948 41.5331C13.8928 38.9255 15.6513 36.1845 17.2106 33.3303L10.051 58.8398C9.25716 57.6001 8.55661 56.3032 7.95516 54.9599H7.95514ZM7.3891 53.6462C6.68121 51.8534 6.14839 49.9965 5.79807 48.1014C7.49059 46.7126 9.03847 45.1568 10.4182 43.4577L7.3891 53.6462ZM18.052 33.6817C18.052 36.3854 18.0062 39.639 17.945 43.1064L13.8297 58.7634L10.9842 58.8551L18.052 33.6817ZM17.8532 47.0321C17.7461 50.912 17.6084 54.9141 17.4095 58.6412L14.7782 58.7328L17.8532 47.0321ZM12.3917 62.0323L17.2106 62.2003C17.1188 63.682 17.0118 65.0873 16.8894 66.401C15.9588 65.6616 15.0701 64.8712 14.2275 64.0333C13.5849 63.3918 12.973 62.7197 12.3917 62.0323ZM35.8899 72.9846C32.1354 72.9936 28.4115 72.31 24.9057 70.9682C24.768 68.8755 24.6303 66.3704 24.4927 63.6362L21.6931 62.6891V69.5171C21.2494 69.288 20.8057 69.0436 20.3774 68.7839V62.3072L21.6931 62.3531V62.3989H23.1158L25.7012 62.4905L57.9348 63.6362C57.8124 63.7736 57.6748 63.8959 57.5524 64.0333C54.7128 66.8801 51.3364 69.1369 47.6182 70.6733C43.9001 72.2097 39.9139 72.9952 35.8899 72.9846Z" fill="#FDB927"/>
<path d="M46.3082 79.6444L45.9562 77.8419L44.0132 78.2238L41.8103 78.6517L39.8676 79.0336L40.2193 80.8205L42.1471 80.4541L43.1412 85.5253L41.2138 85.9072L41.5503 87.6945L43.5085 87.3277L45.7115 86.9002L47.6389 86.5183L47.2872 84.7158L45.3594 85.0977L44.3652 80.0263L46.3082 79.6444Z" fill="#1D428A"/>
<path d="M57.5524 77.506C58.6233 79.7973 57.7818 82.4704 55.1658 83.6771C52.5498 84.8991 49.9644 83.8146 48.8935 81.5233C47.8226 79.2321 48.664 76.5742 51.2801 75.3522C53.8961 74.1455 56.4815 75.2147 57.5524 77.506ZM55.4871 78.4683C54.8293 77.063 53.4677 76.4673 52.0909 77.1088C50.6987 77.7504 50.301 79.171 50.9588 80.5763C51.6166 81.9663 52.9629 82.5926 54.355 81.951C55.7319 81.3095 56.1449 79.8583 55.4871 78.4683Z" fill="#1D428A"/>
<path d="M63.9471 70.2503C62.8456 68.9672 61.1169 69.0588 59.8165 70.1739L57.3688 72.2666L56.9864 72.5874L56.5274 72.9845L56.864 73.3664L57.6136 73.3053L62.7385 79.3084L64.4366 77.8573L62.3408 75.4133L62.8303 75.0008L66.609 76.009L68.659 74.2676L64.2837 73.2442C64.522 72.7657 64.6171 72.2288 64.5574 71.6977C64.4977 71.1667 64.2858 70.6641 63.9471 70.2503H63.9471ZM61.9583 73.3817L61.1628 74.0538L59.8624 72.5416L60.6886 71.8389C61.1628 71.4418 61.7594 71.3501 62.1878 71.8542C62.6315 72.343 62.4632 72.9387 61.9583 73.3817" fill="#1D428A"/>
<path d="M72.2235 69.9142C71.6734 70.7091 70.9244 71.3464 70.0511 71.7625L68.2 70.3725C69.1487 70.1975 70.0078 69.7012 70.6325 68.9672C71.0455 68.4173 71.0149 67.9285 70.7243 67.6994C70.3418 67.4091 69.9441 67.5924 69.1485 67.9896L68.2 68.4326C67.0527 68.9825 66.0736 68.9366 65.2475 68.3104C64.0695 67.4244 63.8553 65.7594 65.0027 64.2319C65.524 63.5234 66.2054 62.9477 66.9915 62.5516L68.6743 63.8195C67.8361 64.0817 67.0886 64.5739 66.5172 65.2401C66.1807 65.683 66.1654 66.1413 66.4713 66.3704C66.7161 66.5537 66.9915 66.5537 67.5116 66.3093L68.6284 65.7747C69.7911 65.2095 70.8773 64.8735 71.9481 65.683C73.325 66.7523 73.2791 68.5242 72.2235 69.9143" fill="#1D428A"/>
<path d="M37.741 81.8594C37.8022 80.1639 36.456 79.0793 34.7425 79.0182L31.5146 78.9113L31.0251 78.8961L30.4131 78.8808L30.3978 79.4001L30.9945 79.8584L30.7191 87.7403L32.9527 87.8167L33.0597 84.5937L33.7023 84.609L35.8134 87.9084L38.506 88L35.9664 84.3035C36.4658 84.1089 36.8987 83.7751 37.2133 83.3417C37.528 82.9084 37.7112 82.3938 37.741 81.8594L37.741 81.8594ZM34.1612 82.8217L33.1209 82.7912L33.1974 80.8054L34.2836 80.836C34.9108 80.8512 35.4004 81.1873 35.3851 81.8594C35.3545 82.5162 34.8343 82.837 34.1612 82.8217" fill="#1D428A"/>
<path d="M27.7971 81.0651C28.2713 79.4459 27.2463 78.0406 25.6094 77.5671L22.5192 76.6506L22.0449 76.5131L21.4636 76.3451L21.3106 76.8339L21.7695 77.4296L19.5207 84.9908L21.6625 85.6171L22.5804 82.5315L23.2076 82.7148L24.4162 86.4267L27.0016 87.1904L25.4718 82.9745C26.0034 82.9166 26.5065 82.7051 26.9195 82.3659C27.3326 82.0268 27.6375 81.5747 27.7971 81.0651L27.7971 81.0651ZM24.0949 81.1109L23.1005 80.8207L23.6665 78.9113L24.7068 79.2168C25.3035 79.4001 25.7012 79.8431 25.5176 80.4846C25.3188 81.1109 24.7374 81.2942 24.0949 81.1109Z" fill="#1D428A"/>
<path d="M17.2718 73.9774L16.4916 73.5192L16.1856 73.3359L15.5431 72.954L15.283 73.397L15.4972 73.8858L9.69914 78.6516L9.20959 79.4765L10.8006 80.4083L11.3973 79.6445L12.3458 79.0946L13.7532 79.9195L15.1606 80.7443L15.13 81.8289L14.7629 82.7148L16.3539 83.6466L16.8435 82.8217L18.3733 74.5732L17.2718 73.9774ZM14.6405 78.4378L13.7532 77.9184L16.155 75.8715L15.5278 78.9571L14.6405 78.4378Z" fill="#1D428A"/>
<path d="M11.9784 70.5559L11.4277 69.9601L11.0455 70.3112L11.122 70.9375L6.34887 72.9999L9.43903 67.7909L8.47532 66.737L3.04445 69.395L5.95113 64.0028L4.28369 62.1699L4.06942 61.9407L3.68692 62.2767L3.79389 63.1321L0 70.5864L1.52968 72.2513L5.1709 70.7391L3.35045 74.2217L4.86489 75.887L13.631 72.3736L11.9784 70.5559Z" fill="#1D428A"/>
</g>
<defs>
<clipPath id="clip0_21_66">
<rect width="73" height="88" fill="white"/>
</clipPath>
</defs>
</svg>
