<svg width="52" height="31" viewBox="0 0 52 31" fill="none" xmlns="http://www.w3.org/2000/svg">
<path d="M3.12145 0H10.2465C11.9758 0 13.3679 1.42047 13.3679 3.18491V27.7641C13.3679 29.5286 11.9758 30.9491 10.2465 30.9491H3.12145C1.39217 30.9491 0 29.5286 0 27.7641V3.18491C0 1.42047 1.39217 0 3.12145 0Z" fill="white"/>
<path d="M8.47677 5.67301L8.48667 5.7777C8.70165 5.90731 8.81402 6.012 9.03381 6.15657C9.61033 6.53045 10.3189 7.19346 10.2309 9.47165C10.3969 9.97016 10.4703 10.9422 10.6169 11.2513C10.915 11.8645 11.1201 12.2633 11.208 12.8366C11.208 12.8366 11.296 13.7339 11.4083 13.7987C12.0043 13.9383 11.8335 13.9981 11.9165 14.1078C12.0092 14.2274 12.3561 14.2224 12.3561 14.5514C12.4783 14.716 12.5712 14.8805 12.6346 15.0599V3.21038C12.6346 1.85444 11.5597 0.757721 10.2356 0.757721H7.94415C8.31058 0.892318 8.52067 1.05184 8.64288 1.3011C8.93589 1.32602 9.28298 1.99901 8.74053 3.00101C8.97986 3.1705 8.7942 3.41976 8.6232 3.70391C8.56946 3.79364 8.51572 3.95814 8.35449 3.94817C8.13951 4.40182 7.89027 4.83053 7.69986 4.85546C7.64619 4.92525 7.60697 5.11967 7.69002 5.2094C7.96872 5.33901 8.3057 5.50851 8.47677 5.67301Z" fill="#C80F2E"/>
<path d="M10.6167 30.1597L10.5923 30.1647C11.6427 29.5116 10.9929 28.2754 10.7926 27.5476L10.8316 27.4228C10.8854 27.3231 10.7731 27.0889 10.7731 27.0889C10.6412 26.9792 10.6119 26.3711 10.5434 26.0919C10.4312 25.6383 10.7437 24.8457 10.7437 24.5765C10.7437 24.3071 10.5434 23.9383 10.1819 23.4698C10.0939 23.3651 9.83007 21.067 9.59556 20.4837C9.26821 19.681 9.17043 19.8106 8.77971 18.8486C8.48161 18.1755 8.71612 17.1836 8.04196 14.8805L8.19335 14.7359C8.19335 14.7359 7.65592 12.7319 7.47996 12.1835C7.30889 11.6352 6.99146 11.6003 6.99146 11.6003L7.01093 11.3161C7.03543 11.2314 7.66562 9.56138 7.71936 9.50655C7.72418 9.47165 8.62811 8.83854 8.6427 8.93326C8.71592 9.34204 9.06776 11.4208 9.21915 11.7498C9.37061 12.0838 9.89352 13.1008 10.1329 13.7339C9.19968 13.9682 8.50095 14.8306 8.50095 15.8526C8.50095 17.059 9.45862 18.041 10.641 18.041C11.5447 18.041 12.3266 17.4678 12.6392 16.6602L12.6343 27.7421C12.6345 28.9683 11.7697 29.9802 10.6167 30.1597Z" fill="#C80F2E"/>
<path d="M7.19179 0.757721C6.41007 1.0668 6.30259 1.41077 6.27334 2.51746C6.14142 2.53241 5.86775 2.4028 5.96065 3.07579C5.96065 3.07579 6.00951 3.52444 6.1854 3.44967C6.04859 4.42674 6.1573 4.67129 5.521 4.7408C5.3842 4.75576 5.21802 4.76573 5.01289 4.7757L4.94937 4.86543C4.07971 4.95018 3.64895 4.89347 3.08784 5.64809C2.87286 5.93722 2.64323 6.346 2.35986 6.92926C2.35986 6.92926 2.10092 7.5823 2.02268 7.8515C1.7735 8.3849 1.16278 9.56637 0.982012 10.3241C0.923451 10.5833 0.811011 10.6631 0.972241 11.037C1.21164 11.5754 0.815897 11.7149 2.17413 11.6751V11.9941C2.17413 11.9941 1.81259 12.3131 1.73442 12.5026C1.66113 12.697 1.45104 13.6491 1.46088 14.1028C1.48524 15.2843 2.42826 16.2712 2.70668 17.4478L3.33694 17.5376C3.67894 18.3402 5.17398 20.5036 5.52093 20.8526C5.52582 20.8576 5.53071 20.8626 5.53559 20.8676C5.6137 21.0719 5.99974 21.3262 6.22441 21.5805C6.36128 21.7151 6.99161 22.413 7.83189 23.0761C8.14037 23.3195 8.47206 23.5596 8.81881 23.764C8.80904 23.759 9.02401 24.1977 9.1315 24.5566C8.70155 24.9105 9.53701 25.5587 9.79107 26.6304C9.80573 26.7749 9.54672 26.9196 9.93276 27.2735C9.90833 28.8935 9.42471 29.7411 10.2357 30.1897H3.08784C1.7883 30.1597 0.737793 29.0731 0.737793 27.742V3.21038C0.737793 1.86939 1.78823 0.787631 3.08784 0.757721H7.19179Z" fill="#1D4289"/>
<path fill-rule="evenodd" clip-rule="evenodd" d="M16.9635 0.743408V30.1551H20.079C20.0871 22.5808 20.2554 14.976 19.7987 7.49033L23.3904 30.1551H27.8606V0.743408H24.7758C24.7129 8.54169 24.9843 16.231 25.5026 23.8398L21.7703 0.743408H16.9635Z" fill="#1D4289"/>
<path fill-rule="evenodd" clip-rule="evenodd" d="M43.9708 0.723083L40.9087 30.1595H44.7186L45.217 24.2072H47.7095L48.208 30.1595H52L49.0269 0.723083H43.9708ZM46.4633 9.03192L47.4246 20.7537H45.5019L46.4633 9.03192Z" fill="#1D4289"/>
<path d="M30.2625 0.743392V30.1392H35.8348C36.7482 30.1392 39.8583 29.3248 39.8583 25.2433V19.3723C39.8583 18.7537 39.8634 16.8144 38.2026 15.6749C39.2404 15.6749 39.8583 13.6207 39.8583 11.7541V5.45647C39.8583 3.00272 38.3615 0.736716 35.3541 0.743392H30.2625ZM33.6984 4.50167H35.3897C36.1645 4.50167 36.4223 5.3744 36.4223 6.04561V12.8918C36.4223 14.0628 36.045 14.1513 35.2651 14.1513H33.6984V4.50167ZM33.6984 17.3611H35.3897C36.1645 17.3611 36.4223 18.2338 36.4223 18.905V25.0198C36.4223 25.8166 36.033 26.4216 35.2651 26.4216L33.6984 26.4418V17.361V17.3611Z" fill="#1D4289"/>
</svg>
