<svg width="88" height="55" viewBox="0 0 88 55" fill="none" xmlns="http://www.w3.org/2000/svg">
<g clip-path="url(#clip0_21_49)">
<path d="M19.1478 12.3649C19.1478 12.3649 26.6325 0 41.9652 0C57.298 0 64.4557 12.0347 64.4557 12.0347H85.2384L84.4028 17.1714C84.4028 17.1714 83.8214 19.2262 82.8767 19.4463H84.2938C84.2938 19.4463 84.7661 21.2809 81.9321 27.5183H87.9998C87.9998 27.5183 88.2178 38.4523 75.1377 43.5891C75.1377 43.5891 68.3797 45.7539 64.928 42.0481C64.928 42.0481 58.0246 55 41.9652 55C25.9058 55 18.6754 41.6811 18.6754 41.6811H0L2.97935 36.2875H0.944671L3.34268 31.8479H7.3757L8.06604 30.1601H6.1767L10.8274 21.501H13.4434L14.4971 18.8592H12.2444L15.6961 12.3649L19.1478 12.3649Z" fill="white"/>
<path d="M42.1832 52.1014C55.2996 52.1014 65.9453 41.2041 65.9453 27.7385C65.9453 14.3095 55.2996 3.41228 42.1832 3.41228C29.0668 3.41228 18.4211 14.3095 18.4211 27.7385C18.4211 41.2041 29.0668 52.1014 42.1832 52.1014Z" fill="#FDB927"/>
<path d="M44.7992 27.6284H43.7819C43.7442 27.631 43.7087 27.6473 43.682 27.6743C43.6552 27.7013 43.6391 27.7371 43.6365 27.7752C43.6365 27.8486 43.7092 27.8852 43.7819 27.8852H44.8356C45.1989 27.8852 45.5259 27.9219 45.4169 28.0687L42.6919 33.3522C42.6464 33.4732 42.5648 33.5768 42.4582 33.6486C42.3517 33.7204 42.2256 33.7568 42.0976 33.7527C41.9695 33.7487 41.846 33.7044 41.7441 33.626C41.6422 33.5476 41.5671 33.4391 41.5292 33.3155L40.1849 26.2708L44.9082 22.565C45.3806 22.1247 46.2889 21.4643 46.7612 21.4643H47.8149C48.4326 21.4643 48.6506 21.7578 48.5052 22.1614L48.3236 22.4917C48.2146 22.7118 47.8149 22.7485 47.5242 22.7485H46.9066C46.8918 22.7464 46.8767 22.7477 46.8625 22.7525C46.8483 22.7573 46.8354 22.7653 46.8248 22.776C46.8142 22.7867 46.8063 22.7997 46.8015 22.814C46.7968 22.8284 46.7954 22.8436 46.7976 22.8586C46.7976 22.932 46.8339 23.0053 46.9066 23.0053H47.5242C47.7786 23.0053 48.0692 23.0053 47.9602 23.1888L45.7802 27.445C45.6712 27.5917 45.1989 27.6284 44.7992 27.6284ZM53.0106 30.2335C50.7943 32.9853 49.5589 33.9026 47.3062 33.9026C46.5432 33.9026 46.1436 33.7191 46.3252 33.3522L49.0139 27.922H50.0312C51.1576 27.922 51.0123 28.8759 50.7216 30.1968C50.6489 30.3802 50.7943 30.3802 50.9396 30.2335L53.4829 25.7205C53.5919 25.4269 53.2649 25.3903 53.1196 25.6104C51.8479 27.3349 50.5036 27.2248 49.9222 27.2248H49.4862L52.3203 21.7211H53.4829C54.9363 21.7945 55.5903 23.042 55.1906 26.0507H55.7719L57.8793 21.8679C58.061 21.501 57.6976 21.1708 57.298 21.1708L43.0552 21.2075C42.2195 21.2075 42.1832 21.8312 42.9825 21.8312C43.6365 21.8312 43.6002 22.7485 43.0189 23.1888L36.9512 28.0687L38.1865 33.7925C38.217 33.9864 38.3217 34.1604 38.478 34.277C38.6343 34.3937 38.8297 34.4437 39.0222 34.4163H50.7942C50.9619 34.4322 51.1307 34.4033 51.2838 34.3325C51.4369 34.2616 51.5688 34.1513 51.6663 34.0127L53.7736 30.3069C54.0643 29.7565 53.4103 29.7932 53.0106 30.2335Z" fill="#552583"/>
<path d="M26.9595 28.6925H23.2171L27.9405 22.3816L26.9595 28.6925ZM26.0875 32.6184C25.9785 33.2422 25.3245 33.6825 24.5251 33.9026L23.6894 34.1227L24.3798 32.8752C24.5615 32.5083 24.1618 32.3249 23.7258 32.8386C20.8191 36.2508 19.8744 37.9019 15.3691 37.9019H14.1701C13.8067 37.9019 13.4071 37.7552 13.6614 37.4249L15.2601 34.4163H21.2914C22.0908 34.4163 21.9091 33.7925 21.4004 33.7925C21.2173 33.7626 21.0423 33.695 20.886 33.594C20.7298 33.4931 20.5957 33.3608 20.4921 33.2055C20.4168 33.0697 20.3803 32.9155 20.3867 32.76C20.3931 32.6045 20.4422 32.4539 20.5284 32.3249L22.8174 29.2061H26.6688L26.0875 32.6184ZM35.0255 33.7925C34.8979 33.7802 34.7761 33.7326 34.6735 33.6549C34.571 33.5773 34.4916 33.4725 34.4442 33.3522C34.3265 32.9926 34.3393 32.6024 34.4805 32.2515L39.9669 22.4183C40.0395 22.2348 40.2939 21.8312 40.5482 21.8312C41.0205 21.8312 41.2385 21.2075 40.4392 21.2075H36.0065C35.2072 21.2075 35.2072 21.8312 35.9702 21.8312C36.0327 21.8268 36.0953 21.8387 36.152 21.8657C36.2087 21.8927 36.2576 21.9339 36.2941 21.9855C36.3305 22.037 36.3533 22.0971 36.3602 22.16C36.3671 22.2229 36.3579 22.2866 36.3335 22.3449L35.1345 24.5831C34.9528 24.8032 34.6258 24.8399 34.2625 24.8399H33.2452C33.1725 24.8399 33.0998 24.8766 33.0998 24.95C33.1024 24.988 33.1185 25.0239 33.1452 25.0509C33.172 25.0778 33.2075 25.0941 33.2452 25.0967H34.2625C34.5532 25.0967 34.7712 25.1701 34.6258 25.5003L30.5565 32.9853C30.2658 33.3889 29.6845 33.4623 29.7208 32.6918L31.1378 21.7578C31.2105 21.4276 31.1378 21.1708 30.7745 21.1708H28.5945C28.4827 21.1717 28.3733 21.2029 28.2774 21.2609C28.1816 21.319 28.1029 21.4019 28.0495 21.501L27.2501 22.455C27.1775 22.565 26.9231 22.565 26.7051 22.565H24.8885C24.8508 22.5676 24.8153 22.5839 24.7885 22.6109C24.7618 22.6379 24.7457 22.6737 24.7431 22.7118C24.7431 22.7852 24.8158 22.8219 24.8885 22.8219H26.3781C26.6325 22.8219 26.9231 22.8953 26.8141 23.042L24.7431 25.6838C24.6232 25.7586 24.4844 25.7968 24.3435 25.7939H23.7621C23.6894 25.7939 23.6168 25.8306 23.6168 25.9039C23.6193 25.942 23.6355 25.9778 23.6622 26.0048C23.6889 26.0318 23.7244 26.0481 23.7621 26.0507H24.2344C24.3798 26.0507 24.3798 26.1241 24.3435 26.1975L22.3814 28.6925C22.2236 28.7714 22.0488 28.8093 21.8728 28.8025H20.1288C20.0561 28.8025 20.0198 28.8759 20.0198 28.9493C20.0176 28.9642 20.019 28.9795 20.0237 28.9938C20.0285 29.0082 20.0364 29.0212 20.047 29.0319C20.0576 29.0425 20.0705 29.0506 20.0847 29.0554C20.0989 29.0601 20.114 29.0615 20.1288 29.0594H21.6184C21.8728 29.0594 22.0181 29.0961 21.9091 29.2795L19.1114 32.8019C18.6028 33.499 16.0594 33.8292 15.5507 33.8292L25.0338 15.9606C25.1097 15.8109 25.2238 15.6844 25.3644 15.5941C25.5049 15.5038 25.6667 15.453 25.8331 15.447H27.8315C28.7761 15.447 28.7761 14.7865 27.9405 14.7865H17.8398C17.0041 14.7865 16.9677 15.447 17.9488 15.447H19.8018C20.3468 15.447 20.4921 15.7405 20.3468 16.034L20.0924 16.511C20.0198 16.6578 19.8744 16.7312 19.3658 16.7312H16.0594C15.9867 16.7312 15.9504 16.8045 15.9504 16.8779C15.9483 16.8929 15.9497 16.9081 15.9544 16.9224C15.9591 16.9368 15.9671 16.9498 15.9777 16.9605C15.9882 16.9711 16.0011 16.9792 16.0153 16.984C16.0295 16.9887 16.0446 16.9901 16.0594 16.988H19.3658C19.5474 16.988 19.8018 17.0614 19.6564 17.3916L19.1841 18.2355C19.1114 18.3822 18.8934 18.4189 18.6754 18.4189H17.1494C17.0767 18.4189 17.0404 18.4923 17.0404 18.5657C17.0404 18.6391 17.0767 18.7125 17.1494 18.7125H18.6391C18.8571 18.7125 18.8934 18.8592 18.7481 19.0427L17.6944 21.024C17.5854 21.2075 17.4401 21.2441 17.0767 21.2441H16.4954C16.4227 21.2441 16.3501 21.2808 16.3501 21.3542C16.3526 21.3923 16.3688 21.4281 16.3955 21.4551C16.4222 21.4821 16.4577 21.4984 16.4954 21.501H17.0767C17.2948 21.501 17.3674 21.6111 17.2584 21.8312L16.3864 23.4823C16.2411 23.7025 16.0594 23.8125 15.4781 23.8125H12.1717C12.1569 23.8104 12.1418 23.8118 12.1276 23.8165C12.1134 23.8213 12.1006 23.8294 12.09 23.84C12.0794 23.8507 12.0714 23.8637 12.0667 23.8781C12.062 23.8924 12.0606 23.9076 12.0627 23.9226C12.0627 23.996 12.0991 24.0694 12.1717 24.0694H15.4781C15.8414 24.0694 15.9867 24.2528 15.8414 24.5097L14.1337 27.7385C14.0247 27.8853 13.7704 27.9219 13.2981 27.9219H9.99171C9.91905 27.9219 9.84638 27.9586 9.84638 28.032C9.84894 28.0701 9.86508 28.1059 9.8918 28.1329C9.91852 28.1599 9.95401 28.1762 9.99171 28.1788H13.2617C13.6614 28.1788 13.9157 28.1788 13.8067 28.3989L12.8257 30.2702C12.6441 30.5637 12.1354 30.5637 11.9174 30.5637H10.8637C10.8489 30.5616 10.8338 30.5629 10.8196 30.5677C10.8054 30.5725 10.7925 30.5805 10.782 30.5912C10.7714 30.6019 10.7634 30.6149 10.7587 30.6293C10.754 30.6436 10.7526 30.6588 10.7547 30.6738C10.7547 30.7472 10.7911 30.8205 10.8637 30.8205H11.9174C12.2807 30.8205 12.4624 30.8939 12.3897 31.0774L11.0817 33.5724C10.9364 33.7925 10.4277 33.7925 10.028 33.7925H4.94135C4.90365 33.7951 4.86816 33.8114 4.84144 33.8384C4.81472 33.8654 4.79858 33.9012 4.79602 33.9393C4.79602 34.0127 4.86869 34.0494 4.94135 34.0494H10.028C10.3914 34.0494 10.7911 34.1227 10.6457 34.3796L9.81005 35.9573C9.73738 36.1041 9.44671 36.1041 9.01071 36.1041H7.99337C7.95567 36.1067 7.92018 36.123 7.89346 36.1499C7.86674 36.1769 7.8506 36.2128 7.84804 36.2508C7.84804 36.3242 7.9207 36.3609 7.99337 36.3609H9.01071C9.26504 36.3609 9.59204 36.3976 9.48304 36.6177L8.93804 37.6084C8.87775 37.752 8.77636 37.8741 8.64689 37.9591C8.51742 38.044 8.36577 38.088 8.21137 38.0854H5.63169C4.68702 38.0854 4.72335 38.7458 5.55902 38.7458H20.6011C21.0371 38.7458 21.0734 38.6725 21.2551 38.3422L23.5078 34.4163H34.9165C35.7158 34.4163 35.5342 33.7925 35.0255 33.7925Z" fill="#552583"/>
<path d="M64.165 26.5644C63.7653 26.9313 63.1113 27.2982 62.966 27.1881C62.6536 26.9183 62.3124 26.6844 61.9486 26.491L64.4193 21.9413C64.4704 21.8643 64.5416 21.8031 64.6249 21.7643C64.7082 21.7254 64.8005 21.7105 64.8917 21.7211C65.8727 21.7211 66.1633 22.7485 65.7273 24.0694C65.4003 24.9867 64.8917 25.9773 64.165 26.5644ZM84.0031 30.6371C83.9304 30.3436 83.8214 30.527 83.6398 30.8939C83.5671 31.0407 83.3854 31.0407 83.1674 31.0407H82.5861C82.5538 31.0423 82.5226 31.0537 82.4967 31.0733C82.4708 31.0929 82.4513 31.1199 82.4408 31.1508C82.4389 31.1705 82.4413 31.1905 82.4479 31.2091C82.4546 31.2278 82.4652 31.2448 82.4791 31.2588C82.493 31.2728 82.5098 31.2836 82.5283 31.2903C82.5468 31.297 82.5665 31.2995 82.5861 31.2976H83.1674C83.3854 31.2976 83.3854 31.4443 83.2764 31.6645C82.9122 32.475 82.4351 33.2286 81.8594 33.9026C81.7976 33.9646 81.7237 34.013 81.6424 34.0445C81.5611 34.0761 81.4741 34.0903 81.3871 34.0861L80.7694 34.1228C80.6968 34.1228 80.6241 34.1594 80.6241 34.2328C80.6266 34.2709 80.6428 34.3067 80.6695 34.3337C80.6962 34.3607 80.7317 34.377 80.7694 34.3796H81.3507C81.6778 34.3796 81.3508 34.563 81.3144 34.6364C80.588 35.6392 79.7327 36.5399 78.7711 37.3149C78.4958 37.3687 78.2142 37.3811 77.9354 37.3516H77.3177C77.2451 37.3516 77.2087 37.425 77.2087 37.4983C77.2066 37.5133 77.208 37.5285 77.2127 37.5429C77.2174 37.5572 77.2254 37.5702 77.236 37.5809C77.2466 37.5916 77.2594 37.5996 77.2736 37.6044C77.2878 37.6092 77.3029 37.6105 77.3177 37.6084L77.9354 37.6451C78.3714 37.6451 78.0444 37.9019 77.9717 37.9386C76.3367 39.3329 73.866 39.7732 72.776 39.6264C69.1427 39.1861 68.3797 36.3976 68.1253 35.2602C68.002 34.9385 67.9048 34.6072 67.8347 34.2695C67.7257 33.6824 69.3607 33.5357 69.7967 33.8292C70.487 34.3062 72.0857 34.7832 73.3574 34.7832C74.52 34.7832 76.8817 33.9393 77.5721 31.9213C78.2987 29.8299 76.5184 27.555 75.7191 26.7478C74.7381 25.7572 73.7934 24.1428 74.193 22.9686C74.4837 22.0881 74.9924 21.6844 76.0461 21.6844C77.4631 21.6844 78.4441 22.565 78.4441 23.8492C78.4441 23.9593 78.4077 24.1061 78.2987 24.1061H77.8264C77.7887 24.1086 77.7532 24.1249 77.7265 24.1519C77.6998 24.1789 77.6836 24.2148 77.6811 24.2528C77.6811 24.3262 77.7537 24.3629 77.8264 24.3629H78.2624C78.2937 24.3608 78.3249 24.3668 78.3532 24.3803C78.3816 24.3938 78.406 24.4144 78.4242 24.4401C78.4424 24.4659 78.4538 24.4959 78.4573 24.5273C78.4607 24.5588 78.4562 24.5906 78.4441 24.6197C78.3714 25.06 78.3351 25.3536 78.2261 25.7939C78.1897 26.0507 78.5531 26.1975 78.6621 26.014L80.8421 22.088C81.0238 21.7945 80.6604 21.7211 80.4061 21.7945C79.7884 22.0147 78.8437 22.1614 78.4804 21.9046C77.72 21.2829 76.7701 20.9459 75.7917 20.9506C73.866 20.9506 72.4854 21.4276 71.6134 23.042C71.5407 23.1521 71.359 23.1521 71.2137 23.1521H70.814C70.7414 23.1521 70.705 23.2255 70.705 23.2989C70.705 23.3722 70.7414 23.4456 70.814 23.4456L71.141 23.4089C71.2864 23.4089 71.359 23.4823 71.2864 23.6291C71.25 23.7758 71.1774 23.9226 71.141 24.0694C70.9343 24.9236 70.9979 25.8218 71.3227 26.6377C71.359 26.6745 71.2864 26.7111 71.141 26.7111H70.5597C70.522 26.7137 70.4865 26.73 70.4598 26.757C70.4331 26.784 70.4169 26.8198 70.4144 26.8579C70.4144 26.9313 70.487 26.968 70.5597 26.968H71.141C71.4317 26.968 71.468 27.0047 71.577 27.1514C71.904 27.5917 72.231 27.922 72.5944 28.4356C72.7397 28.5824 72.1947 28.6191 71.904 28.6191H69.5787C69.5401 28.6191 69.5032 28.6345 69.4759 28.6621C69.4487 28.6896 69.4334 28.7269 69.4334 28.7658C69.4334 28.8048 69.4487 28.8421 69.4759 28.8696C69.5032 28.8972 69.5401 28.9126 69.5787 28.9126H71.9404C72.34 28.9126 72.994 28.8759 73.0667 28.986C73.648 29.6464 74.3384 30.6738 74.4474 31.5544C74.4837 31.8112 74.3747 31.9213 74.084 31.9213H73.757C73.7422 31.9191 73.7271 31.9205 73.713 31.9253C73.6988 31.9301 73.6859 31.9381 73.6753 31.9488C73.6647 31.9595 73.6567 31.9725 73.652 31.9868C73.6473 32.0012 73.6459 32.0164 73.648 32.0314C73.648 32.1047 73.6844 32.1781 73.757 32.1781H74.0477C74.302 32.1781 74.411 32.2148 74.3747 32.3983C74.0477 33.3889 73.6117 34.1228 71.7224 34.0861C69.724 34.0861 69.3244 32.1414 69.9057 30.0867C70.0147 29.6831 69.9057 29.4997 69.724 29.8299L68.3433 32.0314C68.2963 32.0801 68.2397 32.1184 68.1771 32.1436C68.1145 32.1689 68.0474 32.1807 67.98 32.1781H67.7983C67.7598 32.1781 67.7228 32.1936 67.6956 32.2211C67.6683 32.2486 67.653 32.286 67.653 32.3249C67.653 32.3638 67.6683 32.4011 67.6956 32.4287C67.7228 32.4562 67.7598 32.4717 67.7983 32.4717C67.9437 32.4717 68.0163 32.545 67.9437 32.6551L67.435 33.4256C66.6532 31.6046 65.6657 29.8809 64.492 28.2889V28.2522C66.345 28.1421 69.0337 26.4176 69.4697 24.8766C70.2327 22.1614 67.653 21.1708 66.236 21.1708H60.0593C59.2236 21.1708 59.1873 21.8312 59.9503 21.8312C60.3863 21.8312 60.7496 22.1981 60.568 22.565L59.1873 25.06C59.0783 25.2802 58.6786 25.2802 58.0973 25.2802H57.516C57.4433 25.2802 57.3706 25.3169 57.3706 25.3903C57.3732 25.4283 57.3893 25.4642 57.416 25.4912C57.4428 25.5181 57.4783 25.5344 57.516 25.537H58.0973C58.497 25.537 58.933 25.537 58.7876 25.8306L57.1526 28.8025C57.08 28.9493 56.862 28.9493 56.317 28.9493H55.7356C55.6979 28.9519 55.6624 28.9682 55.6357 28.9952C55.609 29.0221 55.5928 29.058 55.5903 29.0961C55.5903 29.1694 55.6629 29.2061 55.7356 29.2061H56.317C56.753 29.2061 56.8983 29.2795 56.7893 29.4997L54.6093 33.4623C54.3549 33.7558 54.0643 33.7925 53.5193 33.7925C52.7199 33.7925 52.7563 34.4163 53.5556 34.4163H58.8603C59.696 34.4163 59.478 33.7925 59.0056 33.7925C58.715 33.7925 58.4243 33.2422 58.606 32.9486L61.2946 27.7385H61.5853C62.7843 27.7385 63.075 29.7565 63.293 31.9213C63.3293 32.068 63.0387 32.1047 62.421 32.1047H60.9313C60.8586 32.1047 60.786 32.1414 60.786 32.2148C60.7885 32.2529 60.8047 32.2887 60.8314 32.3157C60.8581 32.3427 60.8936 32.359 60.9313 32.3616H62.421C62.8207 32.3616 63.3657 32.3616 63.3657 32.5083C63.4354 33.3589 63.5567 34.2044 63.729 35.04C63.8017 35.2969 63.3657 35.2602 62.9297 35.2602H61.004C60.9663 35.2628 60.9308 35.2791 60.9041 35.306C60.8773 35.333 60.8612 35.3689 60.8586 35.4069C60.8586 35.4803 60.9313 35.517 61.004 35.517H62.9297C63.511 35.517 63.838 35.517 63.8743 35.6638C64.6737 38.7091 68.2343 41.1308 71.6497 40.984C74.629 40.8739 77.0997 39.2595 78.3714 38.1955C80.0791 36.8379 82.5861 33.9393 83.6034 31.8479C83.7851 31.481 84.0758 30.9673 84.0031 30.6371Z" fill="#552583"/>
<path d="M34.2988 17.1714C34.0689 17.4465 33.778 17.6629 33.4497 17.8031C33.1215 17.9434 32.7651 18.0035 32.4095 17.9787H32.1915L33.4995 15.3736C33.5335 15.3062 33.5857 15.2498 33.6499 15.2109C33.7141 15.1719 33.7879 15.152 33.8628 15.1534C34.0445 15.1534 34.0082 14.8232 33.7902 14.8232H31.7555C31.5738 14.8232 31.5012 15.1534 31.6828 15.1534C31.8645 15.1534 31.8645 15.3369 31.7918 15.5203L30.6292 17.8319C30.5339 17.9352 30.4049 18.0004 30.2658 18.0153C30.0841 18.0887 29.9751 18.3823 30.1932 18.3823H33.4632C33.7175 18.3823 33.7902 18.3089 33.8265 18.1988L34.5168 17.1714C34.5895 17.0614 34.4078 17.0247 34.2988 17.1714Z" fill="#552583"/>
<path d="M44.1815 14.8966C44.1176 14.9415 44.0415 14.9656 43.9635 14.9656C43.8856 14.9656 43.8095 14.9415 43.7455 14.8966C43.4374 14.6728 43.0711 14.5453 42.6919 14.5297C41.9289 14.5297 41.3839 14.6765 41.0205 15.4103C40.7662 16.034 41.0569 16.5844 41.7109 16.8779C42.0379 17.0247 42.4012 17.2081 42.2559 17.5751C42.1469 17.8319 41.8562 17.8686 41.5655 17.8686C41.2022 17.8319 40.6572 17.5751 40.5845 17.0614C40.5482 16.8779 40.3665 16.9146 40.2939 17.0247L39.8215 17.942C39.7489 18.0887 39.9305 18.1988 40.0395 18.1254C40.1223 18.0385 40.2307 17.9809 40.3485 17.961C40.4663 17.9412 40.5873 17.9603 40.6935 18.0153C41.0487 18.2644 41.4619 18.4161 41.8925 18.4556C42.2302 18.4847 42.5692 18.4176 42.8711 18.2619C43.1729 18.1063 43.4255 17.8683 43.6002 17.5751C43.9999 16.9513 43.7455 16.3276 43.0552 15.9973C42.6555 15.8139 42.3285 15.4837 42.5102 15.1535C42.6192 14.9333 42.9462 14.97 43.1279 15.0067C43.2984 15.0331 43.4588 15.1048 43.5929 15.2144C43.7269 15.324 43.8298 15.4676 43.8909 15.6304C43.8985 15.6567 43.9134 15.6803 43.9339 15.6982C43.9543 15.7161 43.9795 15.7277 44.0063 15.7316C44.0332 15.7355 44.0606 15.7315 44.0852 15.72C44.1098 15.7086 44.1307 15.6902 44.1452 15.6671L44.3632 15.0801C44.4359 14.97 44.2542 14.8599 44.1815 14.8966Z" fill="#552583"/>
<path d="M66.9627 15.8506L67.2533 15.3002C67.3987 15.0801 67.1807 14.8232 66.8537 14.8232H63.0023C62.748 14.8232 62.8206 15.1167 62.9296 15.1167C63.184 15.1167 63.2567 15.4103 63.1113 15.6671L61.9486 17.7952C61.767 18.0153 61.658 18.0887 61.44 18.0887C61.222 18.0887 61.1493 18.3823 61.44 18.3823H65.3277C65.473 18.3823 65.5457 18.3455 65.582 18.2355L66.127 17.5384C66.2723 17.3916 65.9817 17.3916 65.909 17.465C65.6511 17.7042 65.3467 17.8865 65.0151 18.0002C64.6835 18.1139 64.3321 18.1566 63.9833 18.1254H63.5473L64.056 16.9146H64.165C64.5283 16.9146 64.928 16.9146 65.0007 17.1714C65.0183 17.1931 65.0405 17.2106 65.0656 17.2225C65.0908 17.2345 65.1182 17.2407 65.146 17.2407C65.1738 17.2407 65.2012 17.2345 65.2264 17.2225C65.2515 17.2106 65.2737 17.1931 65.2913 17.1714L65.7273 16.2542C65.8 16.1074 65.6183 16.1074 65.5457 16.1808C65.364 16.511 64.5647 16.4376 64.383 16.4376H64.274L64.928 15.1168H65.6547C65.8695 15.1164 66.0791 15.1833 66.2547 15.3081C66.4304 15.4329 66.5635 15.6096 66.6357 15.8139C66.672 15.8873 66.9263 15.9606 66.9627 15.8506Z" fill="#552583"/>
<path d="M48.0329 16.511L49.3046 15.4837V16.511H48.0329ZM57.1526 14.8232H55.8083C55.5176 14.8232 55.5903 15.1167 55.7356 15.1167C55.8113 15.1183 55.8852 15.1399 55.9501 15.1794C56.0149 15.2188 56.0684 15.2747 56.1051 15.3416C56.1419 15.4084 56.1607 15.4838 56.1596 15.5602C56.1585 15.6366 56.1376 15.7115 56.0989 15.7772L55.5539 16.8045L54.3186 14.97C54.1898 14.8507 54.021 14.7851 53.8463 14.7865H52.5019C52.2476 14.7865 52.2839 15.0801 52.4293 15.0801C52.6836 15.0801 52.6109 15.3002 52.5383 15.447L51.4846 17.5384C51.4638 17.5813 51.4308 17.6169 51.3896 17.6405C51.3485 17.6641 51.3013 17.6746 51.2542 17.6706C51.207 17.6667 51.1622 17.6484 51.1255 17.6183C51.0888 17.5881 51.062 17.5475 51.0486 17.5017L50.2129 14.7865C50.1766 14.6764 49.7042 14.6764 49.5589 14.7865L47.4879 16.511H46.4342C46.2162 16.511 46.1072 16.6211 46.1072 16.7312C46.1072 16.8412 46.2162 16.9513 46.4342 16.9513H46.9792L46.4342 17.4283C46.1072 17.6484 45.7802 17.9787 45.5986 17.9787H45.4532C45.2352 17.9787 45.1262 18.0153 45.1262 18.1621C45.1262 18.3456 45.2352 18.3823 45.4169 18.3823H47.0882C47.4152 18.3823 47.3426 17.9787 47.1972 17.9787C47.1336 17.9796 47.0713 17.9611 47.0183 17.9254C46.9654 17.8898 46.9244 17.8388 46.9008 17.7792C46.8772 17.7196 46.872 17.6541 46.886 17.5914C46.9 17.5288 46.9325 17.4719 46.9792 17.4283L47.4879 16.9513H48.5052C49.0866 16.9513 49.5226 17.6485 49.1592 17.8686L48.8686 18.0154C48.7596 18.0888 48.6869 18.3823 48.8686 18.3823H52.1386C52.3929 18.3823 52.3566 18.0521 52.2476 18.0521C51.8843 18.0521 52.0659 17.5751 52.1386 17.465L52.9743 15.8139L54.1733 18.1621C54.2823 18.3089 54.3549 18.3823 54.4639 18.3823H54.9363C54.9933 18.387 55.0501 18.3712 55.0967 18.3376C55.1432 18.304 55.1765 18.2548 55.1906 18.1988L56.5713 15.6671C56.7893 15.2269 56.9709 15.1168 57.2616 15.1168C57.3706 15.1168 57.4433 14.8232 57.1526 14.8232Z" fill="#552583"/>
<path d="M38.1139 16.8779C37.7505 17.6117 37.1328 18.052 36.7695 17.8686C36.3698 17.6851 36.3335 16.9146 36.7332 16.1808C37.0965 15.447 37.6779 15.0067 38.0775 15.1901C38.4772 15.4103 38.4772 16.1441 38.1139 16.8779ZM37.7869 14.6398C36.6605 14.6398 35.4615 15.2268 35.2435 16.4376C35.1852 16.7028 35.1878 16.9779 35.251 17.2419C35.3142 17.5059 35.4364 17.7517 35.6083 17.9607C35.7801 18.1696 35.997 18.3361 36.2424 18.4473C36.4877 18.5585 36.755 18.6116 37.0238 18.6024C38.2592 18.6024 39.3855 17.7952 39.6035 16.6211C39.8215 15.447 38.9859 14.6398 37.7869 14.6398Z" fill="#552583"/>
<path d="M61.0403 16.4376H59.587C59.2963 16.4376 59.369 16.7312 59.478 16.7312C59.5123 16.7271 59.5471 16.731 59.5798 16.7425C59.6125 16.754 59.6421 16.7728 59.6666 16.7975C59.6911 16.8222 59.7097 16.8522 59.721 16.8852C59.7324 16.9181 59.7363 16.9533 59.7323 16.988C59.7323 17.5751 59.478 17.7952 58.933 17.7952C58.388 17.7952 58.17 17.1348 58.5696 16.2909C58.7136 15.9747 58.9439 15.7067 59.2336 15.5182C59.5232 15.3297 59.8601 15.2286 60.2046 15.2268C60.677 15.2268 61.0767 15.3369 61.113 15.7772C61.1493 15.8873 61.2947 15.8873 61.3673 15.7772L61.6943 15.1534C61.7307 15.08 61.6943 15.0067 61.5853 15.0067C61.4763 14.97 61.2947 15.1167 61.1493 15.0067C60.7239 14.7358 60.2349 14.5838 59.7323 14.5664C59.1936 14.5322 58.6567 14.656 58.1861 14.9229C57.7155 15.1898 57.3313 15.5884 57.08 16.0707C56.3896 17.2448 57.3706 18.4923 58.279 18.4923C58.7876 18.4923 59.4053 18.1254 59.7323 17.9787L60.0956 18.2355C60.171 18.3194 60.2747 18.3717 60.3863 18.3823H60.5316C60.677 18.3823 60.7133 18.1988 60.7497 18.0887L61.331 16.6945C61.4037 16.5477 61.3673 16.4376 61.0403 16.4376Z" fill="#552583"/>
<path d="M81.2781 14.8966C81.2141 14.9415 81.138 14.9656 81.0601 14.9656C80.9821 14.9656 80.9061 14.9415 80.8421 14.8966C80.534 14.6728 80.1676 14.5453 79.7884 14.5297C79.0254 14.5297 78.4804 14.6765 78.1171 15.4103C77.8627 16.034 78.1534 16.5844 78.8437 16.8779C79.1344 17.0247 79.4977 17.2081 79.3524 17.575C79.2434 17.8319 78.9527 17.8686 78.6621 17.8686C78.2987 17.8319 77.7537 17.575 77.6811 17.0614C77.6447 16.8779 77.4631 16.9146 77.3904 17.0247L76.9181 17.942C76.8454 18.0887 77.0271 18.1988 77.1361 18.1254C77.2189 18.0385 77.3272 17.9809 77.445 17.961C77.5628 17.9412 77.6838 17.9603 77.7901 18.0153C78.1453 18.2644 78.5584 18.4161 78.9891 18.4556C79.7521 18.4556 80.2971 18.2355 80.6967 17.575C81.0964 16.9513 80.8784 16.3276 80.1517 15.9973C79.7521 15.8139 79.4614 15.4837 79.6067 15.1535C79.7157 14.9333 80.0427 14.97 80.2244 15.0067C80.3949 15.0331 80.5554 15.1048 80.6894 15.2144C80.8235 15.324 80.9263 15.4676 80.9874 15.6304C80.995 15.6567 81.0099 15.6802 81.0304 15.6982C81.0509 15.7161 81.076 15.7277 81.1029 15.7316C81.1297 15.7355 81.1571 15.7315 81.1817 15.72C81.2064 15.7086 81.2272 15.6902 81.2418 15.6671L81.4598 15.08C81.5324 14.97 81.3508 14.8599 81.2781 14.8966Z" fill="#552583"/>
<path d="M71.032 17.1714C70.5233 17.7952 69.8693 17.9787 69.1063 17.9787H68.9247L70.2327 15.3736C70.259 15.3003 70.3094 15.2384 70.3756 15.1983C70.4418 15.1582 70.5196 15.1424 70.596 15.1534C70.7413 15.1534 70.7413 14.8232 70.5233 14.8232H68.4523C68.2707 14.8232 68.2343 15.1534 68.3797 15.1534C68.5613 15.1534 68.5977 15.3369 68.525 15.5203L67.326 17.8319C67.2454 17.9344 67.1278 18.0004 66.999 18.0153C66.8173 18.0887 66.7083 18.3823 66.89 18.3823H70.16C70.4143 18.3823 70.487 18.3089 70.5597 18.1988L71.2137 17.1714C71.3227 17.0614 71.1047 17.0247 71.032 17.1714Z" fill="#552583"/>
<path d="M75.9734 15.1168C76.1855 15.127 76.3904 15.198 76.5641 15.3215C76.7378 15.4449 76.8732 15.6157 76.9544 15.8139C76.9907 15.8873 77.2087 15.9607 77.2814 15.8506L77.5721 15.3002C77.6811 15.0801 77.4994 14.8232 77.1724 14.8232H73.321C73.0304 14.8232 73.1394 15.1168 73.2484 15.1168C73.5027 15.1168 73.5754 15.4103 73.3937 15.6671L72.2674 17.7952C72.2112 17.8892 72.1309 17.9661 72.0349 18.0178C71.939 18.0695 71.831 18.094 71.7224 18.0887C71.5407 18.0887 71.468 18.3823 71.7224 18.3823H75.61C75.7917 18.3823 75.8644 18.3456 75.9007 18.2355L76.4457 17.5384C76.5547 17.3916 76.3004 17.3916 76.1914 17.465C75.9418 17.7054 75.6439 17.8888 75.3179 18.0028C74.9919 18.1167 74.6454 18.1585 74.302 18.1254H73.8297L74.3747 16.9146H74.4837C74.8107 16.9146 75.2104 16.9146 75.3194 17.1714C75.3332 17.1928 75.3521 17.2103 75.3743 17.2224C75.3965 17.2345 75.4213 17.2408 75.4465 17.2408C75.4718 17.2408 75.4966 17.2345 75.5188 17.2224C75.541 17.2103 75.5599 17.1928 75.5737 17.1714L76.0461 16.2542C76.1187 16.1074 75.9007 16.1074 75.8644 16.1808C75.6827 16.511 74.8834 16.4376 74.6654 16.4376H74.5564L75.2467 15.1167L75.9734 15.1168Z" fill="#552583"/>
<path d="M46.3252 5.87058C44.5086 5.76051 43.0189 5.68713 41.7472 5.83389C42.1045 4.94499 42.6948 4.17121 43.4549 3.59573C44.6269 3.65402 45.7928 3.8012 46.9429 4.03603C50.1766 4.65977 55.1906 6.67779 57.3706 9.57639C54.464 7.63176 49.7043 6.12742 46.3252 5.87058ZM40.9116 5.94398C39.6379 6.09003 38.3754 6.32294 37.1329 6.64111C36.9512 6.16413 36.4789 4.69648 36.2972 4.2195C38.2936 3.65867 40.3705 3.4477 42.4376 3.59575C41.9289 3.99933 41.0932 5.50369 40.9116 5.94398V5.94398ZM31.7918 8.65911C31.5738 8.2922 30.5202 7.30154 29.9388 7.11808C31.2832 6.09073 34.3715 4.65977 35.5705 4.40294C35.7522 4.76985 36.2972 6.23749 36.4789 6.82455C35.4252 7.0447 32.6638 8.07205 31.7918 8.65911ZM60.8587 11.998C60.568 11.6311 60.1683 10.8973 57.2616 8.32889C52.9379 4.5497 47.2336 2.82522 41.8926 2.82522C37.9685 2.82522 34.5169 3.70581 30.6655 5.83389C25.7968 8.54903 23.7985 11.6678 23.2898 12.2915C22.9265 12.7685 22.8901 13.0254 23.1081 13.1721C23.2898 13.2822 23.6168 12.9153 23.9075 12.5117C25.3608 10.567 27.2865 8.65911 29.2848 7.52168C29.9025 7.63176 30.7745 8.51234 31.1015 8.95264C29.6455 9.86733 28.2387 10.8594 26.8868 11.9246C26.1965 12.475 25.9785 12.7685 26.1601 12.9887C26.3055 13.1721 26.8505 12.8419 27.2865 12.475C28.6107 11.4117 30.0069 10.4432 31.4648 9.57639C32.2642 10.4937 32.0098 12.1815 31.7192 12.5117C31.5738 12.7318 31.5738 12.9153 31.7192 13.0254C31.9008 13.1354 32.0462 12.8786 32.2642 12.5484C32.8092 11.7779 32.5912 9.9433 32.1552 9.28286C33.5358 8.40227 35.4979 7.81521 36.6969 7.55837C36.8059 7.74183 38.2592 12.0347 38.5499 12.8052C38.6952 13.2455 38.8405 13.7592 39.1675 13.6491C39.3492 13.6124 39.2402 13.1354 39.0585 12.6584C38.8405 12.0714 37.7505 8.47565 37.3872 7.41161C37.7869 7.19146 40.1849 6.71448 40.8026 6.71448C40.5119 8.2922 41.6019 8.95264 42.8372 9.75984C43.4912 10.2001 47.7059 12.6218 48.5779 13.1721C49.0866 13.5023 49.4863 13.6858 49.5953 13.539C49.7043 13.3923 49.3773 13.0254 48.9049 12.7685C48.5416 12.5484 44.6176 10.2368 42.9826 9.20948C41.8199 8.43896 41.2022 7.66845 41.4566 6.6044C41.8562 6.49433 43.0189 6.49433 44.2542 6.49433C52.6109 6.56771 59.2963 11.3743 60.023 12.1815C60.4227 12.5484 60.9313 12.8786 61.1493 12.7318C61.2583 12.6218 61.0403 12.1815 60.8587 11.998V11.998Z" fill="black"/>
<path d="M62.6753 40.8006C63.0023 40.2502 63.2203 39.92 62.966 39.7732C62.748 39.6264 62.4936 40.1768 62.203 40.6905C61.222 42.3783 60.1683 43.8092 57.7703 46.0107C55.7752 47.8183 53.4735 49.2477 50.9759 50.2302C50.0676 47.6618 46.6159 36.7278 46.5069 36.3976C46.3979 35.9206 46.2526 35.8106 46.1072 35.8472C45.9256 35.9206 46.0346 36.1775 46.1436 36.5811C46.2162 36.9847 50.3219 49.9733 50.4672 50.4136C49.6679 50.8172 46.3252 51.7712 44.0362 51.8446C41.9652 51.918 39.5309 51.8446 38.2955 51.5511C36.8785 50.3769 33.6085 45.7171 32.3732 43.2588C30.9198 40.3235 29.9388 37.6451 29.6845 36.5077C29.5755 35.9573 29.4301 35.5537 29.1395 35.6271C28.8488 35.6638 29.0305 36.1041 29.2121 36.6911C29.8805 38.9984 30.7688 41.2348 31.8645 43.3689C33.4995 46.561 36.3698 50.3402 37.2055 51.3676C33.9975 50.6614 30.9752 49.273 28.3401 47.2949C25.7241 45.3136 23.4714 42.8186 22.3451 40.984C22.1634 40.6538 21.9454 40.2135 21.6548 40.3969C21.5094 40.507 21.6911 40.8373 21.8728 41.2042C23.5078 44.1761 27.5045 48.3956 32.6638 50.7072C38.6225 53.3856 45.1262 53.2388 50.9759 50.964C56.0626 48.9827 60.4953 44.8732 62.6753 40.8006Z" fill="black"/>
</g>
<defs>
<clipPath id="clip0_21_49">
<rect width="88" height="55" fill="white"/>
</clipPath>
</defs>
</svg>
