<svg width="66" height="49" viewBox="0 0 66 49" fill="none" xmlns="http://www.w3.org/2000/svg">
<g clip-path="url(#clip0_5_200)">
<path d="M65.6221 18.7508L65.8299 18.8259V15.1246C65.8324 14.5352 65.73 13.95 65.5276 13.3961C65.3211 12.8229 65.028 12.2844 64.6584 11.7991C64.3169 11.3594 63.9236 10.962 63.4869 10.6154C63.095 10.3127 62.6704 10.0543 62.221 9.84509C61.9375 9.65721 61.3707 9.39417 59.8402 8.77416C58.5365 8.26687 56.4391 7.47776 53.7182 6.68865C50.6961 5.79509 47.6234 5.07989 44.5164 4.54678C44.4975 4.5092 42.1167 1.55943 38.5456 3.08129C38.4322 3.13766 38.3 3.19402 38.1866 3.25038C37.6575 3.51342 37.1852 3.73887 36.2782 3.49463C35.7492 3.34433 35.0689 3.02492 35.3335 1.84126C35.3747 1.67318 35.4494 1.51505 35.5533 1.37627C35.6572 1.23748 35.788 1.12087 35.9381 1.03336C36.0474 0.967131 36.1695 0.924537 36.2965 0.908352C36.4235 0.892166 36.5524 0.90275 36.675 0.939416C37.1474 1.07093 37.3552 1.33397 37.2797 1.72853C37.2678 1.80744 37.2355 1.88191 37.1857 1.94453C37.136 2.00716 37.0707 2.05576 36.9962 2.08551C36.9127 2.10984 36.8246 2.11401 36.7392 2.09767C36.6537 2.08133 36.5734 2.04496 36.505 1.99156C36.464 1.96319 36.4179 1.94311 36.3691 1.93248C36.3204 1.92184 36.27 1.92086 36.2209 1.92958C36.1717 1.9383 36.1248 1.95656 36.0828 1.98332C36.0408 2.01007 36.0044 2.04479 35.9759 2.08551C35.9474 2.12622 35.9272 2.17212 35.9165 2.22059C35.9058 2.26906 35.9048 2.31915 35.9136 2.368C35.9223 2.41685 35.9407 2.4635 35.9676 2.5053C35.9945 2.54709 36.0294 2.58321 36.0704 2.61158C36.2401 2.74113 36.4407 2.82478 36.6526 2.85441C36.8645 2.88404 37.0805 2.85864 37.2797 2.78067C37.4697 2.70284 37.636 2.57692 37.7619 2.41541C37.8879 2.25391 37.9691 2.06245 37.9977 1.86004C38.0544 1.55943 38.1299 0.582437 36.864 0.225461C36.6447 0.160447 36.4145 0.140248 36.1872 0.16608C35.9599 0.191913 35.7402 0.263242 35.5413 0.37577C35.3054 0.518899 35.1004 0.7072 34.9382 0.929743C34.776 1.15229 34.6599 1.40464 34.5966 1.67216V1.70974C34.4814 1.55083 34.3551 1.40015 34.2187 1.25882L32.9905 0L31.7623 1.25882C31.6259 1.40015 31.4996 1.55083 31.3844 1.70974V1.67216C31.2463 1.13651 30.9086 0.673092 30.4397 0.375768C30.2423 0.259388 30.0225 0.185831 29.7945 0.159927C29.5666 0.134022 29.3357 0.156355 29.117 0.225459C27.8511 0.601227 27.9267 1.57822 27.9833 1.86004C28.0243 2.05785 28.1103 2.2437 28.2348 2.40329C28.3593 2.56288 28.5189 2.69198 28.7013 2.78067C28.9005 2.85864 29.1165 2.88404 29.3284 2.85441C29.5403 2.82478 29.7409 2.74112 29.9106 2.61158C29.9516 2.5832 29.9865 2.54709 30.0134 2.50529C30.0403 2.4635 30.0587 2.41685 30.0674 2.368C30.0762 2.31915 30.0752 2.26906 30.0645 2.22059C30.0538 2.17212 30.0336 2.12621 30.0051 2.0855C29.9766 2.04479 29.9402 2.01007 29.8982 1.98332C29.8562 1.95656 29.8093 1.9383 29.7601 1.92958C29.711 1.92086 29.6606 1.92184 29.6119 1.93247C29.5631 1.94311 29.517 1.96319 29.476 1.99156C29.4099 2.04908 29.3295 2.08809 29.2432 2.1046C29.1569 2.1211 29.0677 2.11451 28.9848 2.0855C28.9145 2.0497 28.8529 1.99929 28.804 1.93769C28.7551 1.8761 28.7201 1.80476 28.7013 1.72852C28.6258 1.33397 28.8336 1.07093 29.306 0.939413C29.4286 0.902748 29.5575 0.892163 29.6845 0.908348C29.8115 0.924532 29.9336 0.967124 30.0429 1.03335C30.3354 1.22175 30.55 1.50851 30.6475 1.84125C30.931 3.02491 30.2507 3.3631 29.7028 3.49462C28.7958 3.73887 28.3235 3.51341 27.7944 3.25037C27.681 3.194 27.5488 3.13764 27.4354 3.08128C23.8643 1.55942 21.4835 4.50919 21.4457 4.54677C21.4457 4.54925 21.4453 4.55172 21.4444 4.55402C21.4434 4.55632 21.442 4.55842 21.4403 4.56017C21.4385 4.56193 21.4364 4.56331 21.4341 4.56424C21.4318 4.56516 21.4293 4.56561 21.4268 4.56556C18.4306 5.08361 15.4658 5.76731 12.5462 6.61349C9.65401 7.46399 6.82016 8.49951 4.06235 9.71357L3.57109 9.93903V10.0142C3.34724 10.0486 3.13036 10.1184 2.92866 10.2209C2.13507 10.5778 1.36038 10.9724 0.585683 11.3482L-6.05348e-05 11.6488V13.6591C-0.0138534 14.0838 0.0838279 14.5047 0.283363 14.8804C0.316347 14.95 0.361082 15.0136 0.415629 15.0682V17.3041C0.161739 17.7585 0.0253894 18.2685 0.0188354 18.7883C0.00515406 19.2404 0.144927 19.6838 0.415629 20.0472V24.7067L0.472321 24.8382C0.742921 25.5019 1.14992 26.102 1.66726 26.6003C2.18459 27.0985 2.80087 27.4839 3.47662 27.7316L3.41992 27.7692C3.41992 27.7692 4.59141 29.648 6.40532 30.0426L6.06521 30.1929C6.06521 30.1929 7.35007 32.2596 9.8253 32.6917L9.4663 32.8608C10.5833 33.9507 12.0186 34.661 13.5665 34.89C14.8857 38.9869 17.4796 42.5613 20.9742 45.0974C24.4687 47.6334 28.6831 49 33.0094 49C37.3356 49 41.5501 47.6334 45.0446 45.0974C48.5391 42.5613 51.1331 38.9869 52.4523 34.89C54.0002 34.661 55.4355 33.9507 56.5525 32.8608L56.1935 32.6917C58.6687 32.2596 59.9536 30.1929 59.9536 30.1929L59.6135 30.0426C61.4274 29.648 62.5989 27.7692 62.5989 27.7692L62.7122 27.6189C63.6662 27.2201 64.4839 26.5558 65.0672 25.7058C65.6505 24.8559 65.9743 23.8565 65.9999 22.8278V20.4605C65.9415 19.8779 65.8146 19.3041 65.6221 18.7508ZM43.2316 4.35889C41.7578 4.13343 40.2462 3.96433 38.6968 3.8516C38.7346 3.83281 38.7913 3.81403 38.829 3.79523C39.5424 3.47011 40.3332 3.35057 41.1115 3.45022C41.8898 3.54986 42.6243 3.86469 43.2316 4.35889ZM27.1142 3.79524C27.164 3.80874 27.2095 3.8346 27.2465 3.87039C25.6971 3.98312 24.1666 4.171 22.6928 4.39647C23.5431 3.73888 25.1113 2.93098 27.1142 3.79524V3.79524Z" fill="#8C734B"/>
<path d="M63.9027 17.1725L64.9986 17.6047V15.1246C64.9922 14.6327 64.9094 14.1447 64.753 13.6779C64.5758 13.1875 64.3275 12.7254 64.0161 12.3064C63.7201 11.9214 63.3774 11.5743 62.9957 11.273C62.6415 10.9953 62.2545 10.7619 61.8431 10.5778C61.6353 10.4275 61.0684 10.1457 59.5568 9.56327C58.272 9.05598 56.1935 8.28566 53.5105 7.49655C49.1079 6.18137 42.4758 4.64072 35.5603 4.54678C35.4761 4.31001 35.3333 4.09812 35.1451 3.93066C34.9568 3.7632 34.7292 3.64556 34.4833 3.58858C34.4266 2.68673 33.7653 1.99157 33.633 1.84125L32.9906 1.18365L32.3481 1.84125C32.2159 1.97276 31.5546 2.68672 31.4979 3.58858C31.2529 3.64144 31.0256 3.7554 30.8371 3.91975C30.6487 4.08409 30.5055 4.29341 30.4209 4.52799C23.6187 4.64072 17.1188 6.14379 12.7919 7.4214C9.93952 8.26555 7.14378 9.28843 4.42142 10.4839V10.9912C4.42142 10.9912 4.36473 10.9536 4.32695 10.9348C4.19649 10.875 4.0549 10.843 3.91126 10.8409C3.69557 10.8502 3.48379 10.9013 3.28773 10.9912C2.51303 11.3481 1.73834 11.7239 0.982533 12.0997L0.850268 12.1561V13.6779C0.834015 13.9597 0.899605 14.2401 1.03922 14.4858C1.10002 14.596 1.18377 14.6921 1.28486 14.7676V17.5295C1.04257 17.9136 0.905755 18.3541 0.888069 18.8071C0.875549 18.9837 0.904937 19.1607 0.973862 19.3239C1.04279 19.487 1.14932 19.6318 1.28486 19.7465V24.5751C1.55548 25.2061 1.97202 25.7647 2.50061 26.2054C3.02921 26.6461 3.65495 26.9566 4.32695 27.1116C4.38364 27.1304 4.44032 27.1304 4.497 27.1492H4.5159C4.90714 27.2301 5.30709 27.2616 5.70628 27.2431C5.29059 27.4498 4.8938 27.6376 4.47811 27.8631C4.47811 27.8819 5.70628 29.8735 8.6161 29.5916C8.12484 29.8171 7.65246 30.0613 7.16119 30.2868C7.16119 30.3056 8.55941 32.2596 11.6582 32.222C10.9402 32.579 10.5245 32.8044 10.5245 32.8044C11.5607 33.7062 12.8717 34.2356 14.2468 34.3075C15.4565 38.3206 17.9353 41.8388 21.3153 44.34C24.6953 46.8413 28.7962 48.1921 33.0095 48.1921C37.2227 48.1921 41.3237 46.8413 44.7036 44.34C48.0836 41.8388 50.5624 38.3206 51.7721 34.3075C53.1441 34.2217 54.4508 33.6941 55.4944 32.8044C55.4944 32.8044 55.0599 32.579 54.3608 32.222C57.4406 32.2784 58.8389 30.3244 58.8578 30.2868C58.3665 30.0426 57.8941 29.8171 57.4028 29.5916C60.3316 29.8735 61.5408 27.9007 61.5408 27.8631C61.1251 27.6564 60.7284 27.4498 60.3127 27.2431C61.164 27.3076 62.0148 27.1109 62.7501 26.6794C63.4547 26.3032 64.0474 25.7492 64.4686 25.0732C64.8898 24.3971 65.1247 23.6227 65.1498 22.8278V20.4605C65.112 18.9386 63.9027 17.1725 63.9027 17.1725Z" fill="#0A2240"/>
<path d="M46.0092 35.9609C46.3682 36.2427 46.7461 36.5245 47.1051 36.8064C47.1051 36.7688 42.7593 37.99 39.6416 36.6373L39.3015 36.4682C38.9188 37.8505 38.0904 39.0696 36.9435 39.9385C35.7966 40.8074 34.3947 41.278 32.9528 41.278C31.511 41.278 30.109 40.8074 28.9621 39.9385C27.8152 39.0696 26.9868 37.8505 26.6041 36.4682C26.4907 36.5245 26.3963 36.5809 26.264 36.6373C23.1652 37.99 18.8005 36.7688 18.8005 36.8064C19.1595 36.5245 19.5374 36.2427 19.8964 35.9609C18.5947 36.1318 17.2709 36.0098 16.0229 35.6039C17.4 38.9385 19.743 41.7906 22.7542 43.7979C25.7654 45.8052 29.3087 46.8769 32.9339 46.8769C36.5591 46.8769 40.1025 45.8052 43.1136 43.7979C46.1248 41.7906 48.4678 38.9385 49.8449 35.6039C48.6124 36.0215 47.2982 36.1438 46.0092 35.9609Z" fill="#CE0E2D"/>
<path d="M31.1578 6.42561C30.8274 6.26135 30.5712 5.97972 30.4398 5.63651C19.4807 5.91833 8.54054 9.82631 8.57833 9.97662C8.38561 10.0362 8.21393 10.1491 8.08343 10.3021C7.95292 10.4552 7.86897 10.6421 7.84143 10.8409V11.2354C15.2913 8.35784 23.1868 6.78763 31.1767 6.59471L31.1578 6.42561Z" fill="white"/>
<path d="M58.0641 10.2584C58.083 10.1081 46.6138 5.91833 35.5036 5.63651C35.3661 5.97599 35.1116 6.25572 34.7856 6.42561V6.57592C43.0175 6.81727 51.1442 8.48303 58.801 11.4985V11.1039C58.7699 10.9086 58.6844 10.7259 58.5541 10.5764C58.4239 10.427 58.2541 10.3168 58.0641 10.2584Z" fill="white"/>
<path d="M34.1809 4.45285C33.4629 4.35891 33.3496 5.37348 33.3307 5.71167H33.1039C33.1039 4.75346 33.5763 4.35891 33.5763 3.7201C33.5763 3.0813 32.9906 2.48007 32.9906 2.48007C32.9906 2.48007 32.4048 3.08131 32.4048 3.7201C32.4048 4.3589 32.8583 4.75345 32.8583 5.71167H32.6315C32.6126 5.37348 32.4993 4.35891 31.7813 4.45285C31.0066 4.54679 31.1011 5.59894 31.7813 5.69288C31.7813 5.69288 31.649 5.22317 32.0269 5.22317C32.3103 5.22317 32.3859 5.54257 32.4048 5.71166H32.0647V6.08743H32.8205C32.8 6.18503 32.7592 6.27728 32.7006 6.35819C32.642 6.4391 32.567 6.50688 32.4804 6.55714C32.5108 6.61833 32.5562 6.67099 32.6122 6.71036C32.6683 6.74973 32.7334 6.77456 32.8016 6.78259C32.8109 6.94996 32.8776 7.10912 32.9905 7.23352C33.106 7.11067 33.1731 6.9506 33.1795 6.78259C33.2477 6.77456 33.3128 6.74974 33.3689 6.71037C33.4249 6.671 33.4703 6.61833 33.5007 6.55714C33.4141 6.50689 33.3391 6.43911 33.2805 6.3582C33.2219 6.27728 33.1811 6.18504 33.1606 6.08743H33.8975V5.71167H33.5763C33.5952 5.54257 33.6708 5.22318 33.9542 5.22318C34.3321 5.22318 34.1998 5.69289 34.1998 5.69289C34.8612 5.59895 34.9367 4.54679 34.1809 4.45285" fill="#CE0E2D"/>
<path d="M30.6665 11.7991V9.45055C30.6778 9.15724 30.6127 8.86601 30.4775 8.60507C30.3676 8.37171 30.1982 8.17094 29.9863 8.02263C29.7669 7.86415 29.5154 7.75515 29.2494 7.70323C28.9444 7.64529 28.6333 7.62635 28.3235 7.64686C28.0068 7.66031 27.6943 7.72373 27.3977 7.83474C27.1249 7.93086 26.8696 8.07046 26.6419 8.24809C26.4274 8.42491 26.2589 8.65046 26.1506 8.90568C26.0263 9.18367 25.9619 9.48449 25.9617 9.78873V12.1561C25.8398 12.1881 25.7317 12.2585 25.6533 12.3567C25.575 12.4549 25.5307 12.5756 25.5271 12.7009C25.5258 12.7589 25.536 12.8166 25.5572 12.8707C25.5783 12.9247 25.61 12.9741 25.6503 13.016C25.6907 13.0579 25.739 13.0914 25.7924 13.1147C25.8458 13.1381 25.9033 13.1507 25.9617 13.1518V15.801C25.9525 16.0941 26.0175 16.3848 26.1506 16.6465C26.2611 16.8744 26.4307 17.069 26.6419 17.2101C26.8677 17.3659 27.1261 17.4686 27.3977 17.5107C28.0149 17.6235 28.6505 17.5848 29.2494 17.398C29.5172 17.3125 29.767 17.1787 29.9863 17.0035C30.2002 16.8337 30.3689 16.6144 30.4775 16.3647C30.6019 16.0933 30.6663 15.7986 30.6665 15.5004V12.8512C30.7925 12.835 30.9087 12.7753 30.995 12.6826C31.0813 12.5899 31.1322 12.4701 31.1389 12.3439C31.1487 12.2094 31.1045 12.0765 31.016 11.9744C30.9274 11.8723 30.8017 11.8092 30.6665 11.7991ZM29.3627 15.444C29.3648 15.5933 29.3325 15.7412 29.2683 15.8762C29.2079 15.992 29.1243 16.0943 29.0226 16.1768C28.9224 16.2503 28.8148 16.3133 28.7014 16.3647C28.5862 16.4076 28.4652 16.4329 28.3424 16.4398C28.2162 16.4429 28.0898 16.4366 27.9645 16.421C27.8444 16.397 27.7293 16.3525 27.6244 16.2895C27.5242 16.2207 27.4404 16.1309 27.3788 16.0265C27.3125 15.8922 27.28 15.7439 27.2843 15.5943V9.69479C27.2823 9.54547 27.3146 9.39766 27.3788 9.26266C27.4392 9.14684 27.5228 9.04453 27.6244 8.96205C27.7242 8.87768 27.8398 8.81382 27.9645 8.77416C28.0862 8.73117 28.2135 8.70585 28.3424 8.699C28.4633 8.69186 28.5846 8.70456 28.7014 8.73658C28.8194 8.7592 28.9299 8.81087 29.0226 8.88689C29.1185 8.96058 29.2015 9.04944 29.2683 9.14992C29.3325 9.28492 29.3648 9.43273 29.3627 9.58206L29.3627 15.444Z" fill="white"/>
<path d="M5.53626 18.1495C5.53626 18.1683 5.53626 18.1871 5.51736 18.1683L5.47957 18.1308C5.44178 18.018 3.89241 12.87 3.79792 12.6446C3.72235 12.4003 3.66566 12.2876 3.66566 12.2688C3.66103 12.2363 3.64822 12.2054 3.6284 12.1792C3.60858 12.1529 3.5824 12.132 3.55229 12.1185C3.51409 12.1074 3.47386 12.105 3.4346 12.1115C3.39534 12.118 3.35806 12.1332 3.32555 12.1561C2.85318 12.3815 2.3997 12.5882 1.92733 12.8137V13.2458C1.91843 13.3553 1.93795 13.4653 1.98402 13.5652C2.0192 13.6284 2.07159 13.6805 2.13518 13.7155C2.19938 13.7476 2.27155 13.7607 2.34302 13.7531V17.6798C2.22713 17.7571 2.13093 17.8602 2.06205 17.9808C1.99318 18.1015 1.95352 18.2364 1.94623 18.375C1.93873 18.4251 1.94489 18.4763 1.96407 18.5233C1.98326 18.5702 2.01476 18.6112 2.0553 18.6419C2.09583 18.6726 2.14391 18.6919 2.19452 18.6979C2.24513 18.7038 2.29642 18.6961 2.34302 18.6756V24.2182C2.70203 24.0491 3.06103 23.88 3.43893 23.7109V16.7592C3.43893 16.7028 3.43893 16.6841 3.45782 16.6841L3.47672 16.7028C3.51451 16.8241 3.55866 16.9432 3.60898 17.0598C3.68456 17.2853 5.21505 22.3581 5.23394 22.3957C5.26736 22.5002 5.31169 22.601 5.36621 22.6963C5.37748 22.7149 5.39267 22.7309 5.41074 22.7431C5.42881 22.7553 5.44932 22.7635 5.47087 22.7671C5.49242 22.7706 5.51449 22.7695 5.53557 22.7638C5.55664 22.7581 5.57622 22.7479 5.59295 22.7339C5.83858 22.64 6.08421 22.5272 6.32985 22.4333C6.42109 22.3921 6.49943 22.3272 6.55659 22.2454C6.60748 22.1671 6.63378 22.0756 6.63217 21.9824V16.778C6.73487 16.708 6.82044 16.6159 6.88257 16.5086C6.94471 16.4013 6.98182 16.2815 6.99117 16.158C6.99569 16.1108 6.98933 16.0632 6.9726 16.0188C6.95586 15.9745 6.92918 15.9345 6.89458 15.9019C6.85998 15.8693 6.81836 15.8449 6.7729 15.8307C6.72743 15.8165 6.67931 15.8128 6.63217 15.8198V11.9682C6.6317 11.9036 6.64456 11.8397 6.66996 11.7803C6.68885 11.7427 6.72665 11.6864 6.74554 11.6488C6.82354 11.5548 6.89309 11.4542 6.95338 11.3482C7.02212 11.2283 7.05491 11.0914 7.04786 10.9536V10.5779C6.5377 10.7845 6.02753 10.9912 5.51737 11.2167V18.1495H5.53626Z" fill="white"/>
<path d="M57.2895 18.2435C57.2895 18.2623 57.2895 18.2623 57.2706 18.2435C57.2517 18.2247 57.2517 18.2059 57.2328 18.1871C57.195 18.0556 57.1383 17.8114 57.0249 17.4356C56.9305 17.0598 56.7982 16.6277 56.6659 16.1392C56.5337 15.6507 56.4014 15.1246 56.2502 14.5986C56.0991 14.0537 55.9668 13.5652 55.8346 13.1143C55.7023 12.6633 55.5889 12.2876 55.5133 11.9682C55.4588 11.8083 55.4146 11.6452 55.3811 11.4797C55.363 11.3906 55.3241 11.3069 55.2677 11.2354C55.2031 11.1706 55.126 11.1195 55.041 11.0851C54.5497 10.9348 54.0773 10.7657 53.586 10.6154V11.0476C53.5835 11.1751 53.6026 11.3021 53.6427 11.4233C53.6774 11.519 53.7286 11.608 53.7939 11.6864C53.8554 11.7691 53.9324 11.8393 54.0206 11.893V14.9555C53.9673 14.9468 53.9127 14.9501 53.8609 14.9654C53.809 14.9806 53.7613 15.0072 53.7213 15.0434C53.6814 15.0795 53.6501 15.1242 53.63 15.1741C53.6098 15.2239 53.6012 15.2777 53.6049 15.3313C53.6109 15.4625 53.6528 15.5895 53.7261 15.6988C53.7993 15.8081 53.9012 15.8954 54.0206 15.9513V20.4417C54.3985 20.5545 54.7764 20.686 55.1543 20.7987V14.6549C55.1543 14.5985 55.1543 14.5798 55.1732 14.5985C55.1732 14.6173 55.1921 14.6173 55.1921 14.6549C55.2273 14.8138 55.2715 14.9706 55.3244 15.1246C55.4189 15.4252 55.5133 15.801 55.6456 16.2519C55.7779 16.7029 55.9101 17.1913 56.0613 17.7174C56.2125 18.2435 56.3447 18.732 56.477 19.2017C56.6093 19.6714 56.7226 20.066 56.8171 20.3854C56.9116 20.7236 56.9683 20.9114 56.9871 20.949C57.0229 21.0893 57.0671 21.2273 57.1194 21.3624C57.1639 21.4631 57.2448 21.5436 57.3461 21.5878L58.083 21.8696C58.118 21.8906 58.1588 21.9001 58.1995 21.8967C58.2402 21.8934 58.2788 21.8773 58.3098 21.8509C58.337 21.8241 58.3579 21.7917 58.371 21.756C58.384 21.7202 58.389 21.682 58.3854 21.6442V17.4732C58.4325 17.4802 58.4806 17.4765 58.5261 17.4622C58.5716 17.448 58.6132 17.4237 58.6478 17.3911C58.6824 17.3585 58.7091 17.3185 58.7258 17.2741C58.7425 17.2297 58.7489 17.1822 58.7444 17.135C58.7373 17.011 58.7011 16.8903 58.6388 16.7827C58.5764 16.675 58.4897 16.5833 58.3854 16.515V13.5276C58.3811 13.4748 58.3944 13.422 58.4232 13.3773L58.4987 13.3022C58.576 13.2722 58.6465 13.2275 58.7066 13.1706C58.744 13.127 58.7717 13.076 58.788 13.0209C58.8043 12.9659 58.8087 12.9081 58.8011 12.8512V12.4755C58.2909 12.2688 57.7618 12.0809 57.2517 11.893V18.2435H57.2895Z" fill="white"/>
<path d="M63.7515 19.2205C63.589 18.8706 63.3929 18.5371 63.1658 18.2247C62.9769 17.9617 62.769 17.6986 62.5423 17.4356C62.5577 17.4001 62.5642 17.3614 62.5612 17.3229C62.5482 17.1694 62.4963 17.0217 62.4104 16.8936C62.3245 16.7655 62.2074 16.6611 62.0699 16.5901C62.0242 16.5644 61.9733 16.5494 61.9209 16.5461C61.8685 16.5429 61.8161 16.5515 61.7676 16.5713C61.7298 16.5338 61.692 16.4774 61.6542 16.4398C61.4451 16.2068 61.2495 15.9622 61.0685 15.7071C60.9294 15.5347 60.844 15.3258 60.8228 15.1058V13.0579C60.8204 13.0184 60.8278 12.9789 60.8442 12.9429C60.8607 12.9069 60.8858 12.8754 60.9173 12.8512C60.9816 12.7979 61.0607 12.7651 61.1441 12.7573C61.2383 12.7479 61.3332 12.7479 61.4275 12.7573C61.5246 12.7801 61.6194 12.8115 61.7109 12.8512C61.7865 12.8888 61.881 12.9452 61.9943 13.0015C62.0888 13.0767 62.2022 13.1519 62.2777 13.227C62.359 13.3116 62.4289 13.4063 62.4856 13.5088C62.5427 13.6061 62.5752 13.7157 62.5801 13.8282V14.3167C62.5883 14.5389 62.6604 14.7541 62.7879 14.9367C62.9165 15.1349 63.1003 15.2916 63.317 15.3877C63.5059 15.4816 63.6949 15.5567 63.8649 15.6507V14.6925C63.8624 14.3736 63.8114 14.0569 63.7138 13.7531C63.6003 13.4586 63.4478 13.1806 63.2603 12.9264C63.0678 12.6692 62.8387 12.4414 62.5801 12.25C62.3195 12.0457 62.0337 11.8752 61.7298 11.7427C61.4594 11.6178 61.1735 11.5294 60.8795 11.4797C60.6517 11.4388 60.4171 11.4582 60.1993 11.5361C60.0067 11.6207 59.8474 11.766 59.7458 11.9494C59.62 12.2063 59.5615 12.4907 59.5758 12.7761V14.467C59.5744 14.8178 59.6519 15.1644 59.8025 15.4816C59.9618 15.8039 60.1584 16.1065 60.3883 16.3835C60.6184 16.6723 60.8644 16.9482 61.1252 17.2101C61.1017 17.2701 61.0889 17.3337 61.0874 17.398C61.0982 17.5497 61.1494 17.6957 61.2357 17.8212C61.322 17.9467 61.4404 18.047 61.5786 18.112C61.6363 18.1469 61.7031 18.1637 61.7705 18.1604C61.8379 18.157 61.9027 18.1336 61.9565 18.0932C62.1578 18.3254 62.3351 18.5772 62.4856 18.8447C62.6328 19.1025 62.7109 19.3937 62.7123 19.6902V22.1139C62.7164 22.2104 62.6825 22.3048 62.6178 22.3769C62.5449 22.4356 62.4616 22.4802 62.3722 22.5084C62.266 22.5273 62.1572 22.5273 62.051 22.5084C61.9334 22.4948 61.8187 22.4631 61.7109 22.4145C61.5895 22.3596 61.4753 22.2902 61.3708 22.2078C61.2574 22.1139 61.1441 22.0199 61.0496 21.926C60.9574 21.8278 60.8751 21.7208 60.8039 21.6066C60.7465 21.5027 60.7142 21.3869 60.7095 21.2684V20.7048C60.7141 20.5153 60.6541 20.3299 60.5394 20.1787C60.4062 20.0103 60.23 19.8806 60.0293 19.8029C59.8214 19.7278 59.6325 19.6338 59.4246 19.5587V20.5357C59.4215 20.8584 59.4858 21.1783 59.6136 21.4751C59.7289 21.7707 59.8952 22.0441 60.1048 22.283C60.3161 22.5306 60.5573 22.7515 60.8228 22.9406C61.1016 23.1276 61.3919 23.297 61.692 23.4479C61.9717 23.5701 62.2628 23.6645 62.5612 23.7297C62.7985 23.7812 63.0449 23.7747 63.2792 23.7109C63.4861 23.6545 63.6625 23.5196 63.7704 23.3351C63.9102 23.1032 63.9761 22.8347 63.9594 22.5648V20.235C63.9728 19.8852 63.9015 19.5373 63.7515 19.2205Z" fill="white"/>
<path d="M19.8397 13.6216C19.783 14.0725 19.7263 14.5234 19.6885 14.9743C19.6318 15.4252 19.594 15.801 19.5374 16.158C19.4996 16.4962 19.4618 16.778 19.424 16.9847C19.4051 17.1913 19.3862 17.3041 19.3673 17.3041C19.2539 16.7028 19.1594 16.158 19.0839 15.6695C19.0083 15.181 18.9138 14.6549 18.8004 14.0537C18.706 13.4525 18.5926 12.87 18.4981 12.2876C18.3848 11.7051 18.2903 11.1791 18.1958 10.6718C18.1013 10.1833 18.0257 9.78873 17.9502 9.50691C17.9313 9.41297 17.8557 9.3566 17.7045 9.31902C17.5611 9.29084 17.4134 9.29084 17.27 9.31902C17.1264 9.36243 16.9872 9.41904 16.8543 9.48812C16.7919 9.51476 16.737 9.55602 16.6943 9.60838C16.6515 9.66073 16.6221 9.72262 16.6086 9.78873C16.533 10.0893 16.4575 10.5027 16.363 11.0476C16.2685 11.5736 16.174 12.1561 16.0607 12.7949C15.9662 13.4149 15.8528 14.0537 15.7584 14.6925C15.6639 15.3313 15.5694 15.9325 15.4749 16.4586C15.3994 16.9847 15.3049 17.5859 15.1915 18.2435C15.1915 18.2435 15.1726 18.1496 15.1348 17.9429C15.097 17.7362 15.0781 17.4732 15.0214 17.1538C14.9837 16.8344 14.9459 16.4586 14.8892 16.0453C14.8325 15.6319 14.7758 15.1998 14.738 14.7676C14.6247 13.7531 14.1901 10.0706 14.1901 10.0706L12.6029 10.5215V10.916C12.597 11.0359 12.6301 11.1545 12.6974 11.2542C12.7452 11.3208 12.8106 11.3728 12.8863 11.4045C12.9241 11.4233 12.9619 11.4609 12.9997 11.4797C13.0396 11.521 13.066 11.5734 13.0753 11.63C13.2075 12.6633 13.3209 13.6216 13.4154 14.5234C13.3205 14.585 13.2418 14.6684 13.1859 14.7664C13.1301 14.8645 13.0986 14.9744 13.0942 15.087C13.0912 15.1422 13.1009 15.1973 13.1226 15.2481C13.1442 15.299 13.1773 15.3442 13.2192 15.3805C13.2611 15.4167 13.3108 15.443 13.3644 15.4572C13.418 15.4715 13.4743 15.4734 13.5288 15.4628V15.5192C13.5855 16.0077 13.6421 16.4962 13.6988 16.9659C13.7555 17.4356 13.8122 17.8489 13.85 18.2247C13.9067 18.6005 13.9445 18.9011 13.9633 19.1266C13.9861 19.2506 13.9987 19.3763 14.0011 19.5023C14.0017 19.5341 14.0088 19.5654 14.0217 19.5945C14.0347 19.6235 14.0534 19.6497 14.0767 19.6714C14.1017 19.7005 14.1361 19.7201 14.1739 19.7269C14.2118 19.7338 14.2509 19.7274 14.2846 19.709L15.7584 19.3144C15.8453 19.2938 15.9242 19.248 15.9851 19.1829C16.0512 19.0982 16.1023 19.0029 16.1363 18.9011C16.5142 16.7029 16.8732 14.5234 17.2511 12.344C17.6101 14.3543 17.9691 16.3834 18.347 18.4126C18.3765 18.4944 18.4289 18.5661 18.4981 18.6193C18.5314 18.6404 18.5687 18.6546 18.6076 18.6611C18.6466 18.6675 18.6865 18.6661 18.7249 18.6568L20.1987 18.375C20.2405 18.3684 20.2806 18.3533 20.3163 18.3307C20.3521 18.3081 20.3828 18.2784 20.4065 18.2435C20.45 18.1807 20.482 18.1107 20.501 18.0368C20.501 18.018 20.5199 17.8865 20.5577 17.6423C20.5955 17.398 20.6333 17.0786 20.6711 16.6841C20.7277 16.2895 20.7655 15.8574 20.8222 15.3501C20.8789 14.8616 20.9356 14.3543 20.9923 13.8282V13.7719C21.1139 13.7332 21.2207 13.6585 21.2984 13.5577C21.3761 13.457 21.4209 13.335 21.4269 13.2082C21.4304 13.1128 21.4002 13.0192 21.3415 12.9437C21.2828 12.8682 21.1994 12.8155 21.1056 12.7949C21.219 11.8554 21.3324 10.8409 21.4646 9.75115C21.4782 9.6845 21.5038 9.62084 21.5402 9.56327C21.5732 9.51556 21.6112 9.47147 21.6536 9.43175C21.7354 9.36663 21.8002 9.28284 21.8425 9.1875C21.9047 9.07191 21.9372 8.94282 21.937 8.81173V8.41718C21.3891 8.51112 20.86 8.58627 20.3309 8.699C20.4065 8.69901 19.9719 12.5506 19.8397 13.6216Z" fill="white"/>
<path d="M52.4145 14.9931C52.4046 14.8605 52.359 14.733 52.2826 14.624C52.2061 14.5149 52.1016 14.4282 51.98 14.3731C51.9233 14.0161 51.8666 13.6591 51.791 13.3022C51.7154 12.8137 51.6399 12.3815 51.5643 11.987C51.5076 11.5924 51.4509 11.273 51.3942 11.01C51.3564 10.7657 51.3186 10.6154 51.3186 10.5779C51.2937 10.4054 51.2219 10.2429 51.1108 10.1081C50.9858 9.95569 50.8127 9.84974 50.6195 9.80753C50.0338 9.65722 49.448 9.50692 48.8623 9.3754V9.676C48.8474 9.82082 48.869 9.96703 48.9251 10.1015C48.9811 10.236 49.0699 10.3545 49.1835 10.4463C49.2035 10.4616 49.2192 10.4817 49.2291 10.5047C49.2391 10.5277 49.2429 10.5529 49.2402 10.5778C49.2424 10.641 49.2361 10.7042 49.2213 10.7657C49.2213 10.7657 49.2024 10.8785 49.1646 11.0663C49.1268 11.2542 49.0701 11.5173 49.0135 11.8367C48.9568 12.1561 48.8812 12.513 48.8056 12.9264C48.7678 13.1331 48.73 13.3209 48.6922 13.5276C48.6317 13.5098 48.5677 13.5066 48.5056 13.5182C48.4435 13.5299 48.3851 13.5561 48.3353 13.5946C48.2854 13.6332 48.2455 13.683 48.2188 13.74C48.1922 13.7969 48.1796 13.8594 48.1821 13.9222C48.189 14.0316 48.2217 14.138 48.2775 14.2326C48.3333 14.3272 48.4106 14.4075 48.5033 14.467C48.2577 15.7259 47.653 18.7884 47.653 18.7884L48.9001 19.0702C48.9001 19.0702 49.2591 16.9659 49.278 16.9283C49.2969 16.7592 49.3725 16.6841 49.5047 16.7216C49.996 16.8344 50.5062 16.9659 50.9974 17.0974C51.0671 17.1131 51.1319 17.1453 51.1864 17.1913C51.2183 17.2233 51.2432 17.2615 51.2595 17.3036C51.2757 17.3456 51.283 17.3906 51.2809 17.4356C51.2809 17.4732 51.5643 19.7466 51.5643 19.7466C51.9989 19.8781 52.4334 19.9908 52.868 20.1223C52.868 20.1223 52.339 16.9283 52.0555 15.3501C52.3012 15.3125 52.4145 15.181 52.4145 14.9931ZM51.0919 15.9701C51.0541 16.0077 51.0163 16.0077 50.9407 15.9889C50.525 15.8761 50.1283 15.7822 49.7126 15.6695C49.658 15.6562 49.6106 15.6226 49.5803 15.5755C49.5605 15.5565 49.5464 15.5323 49.5397 15.5058C49.533 15.4792 49.534 15.4513 49.5425 15.4252C49.5425 15.4252 49.5614 15.3501 49.5803 15.2186C49.5992 15.087 49.637 14.9179 49.6559 14.7113C49.6937 14.5046 49.7315 14.2791 49.7692 14.0161C49.807 13.7531 49.8637 13.49 49.9204 13.227C50.0527 12.513 50.1849 11.7991 50.3172 11.0663H50.3361C50.4684 11.8554 50.6006 12.6258 50.7329 13.4149C50.7896 13.7155 50.8274 13.9973 50.884 14.2791C50.9218 14.561 50.9596 14.824 50.9974 15.0307C51.0352 15.2561 51.0541 15.444 51.0919 15.5943C51.1004 15.6701 51.113 15.7454 51.1297 15.8198C51.1486 15.8949 51.1297 15.9513 51.0919 15.9701Z" fill="white"/>
<path d="M36.505 16.3271C36.4719 16.2957 36.4336 16.2703 36.3917 16.2519C36.3539 16.2331 36.3539 16.1768 36.3539 16.0828V13.8658C36.3545 13.565 36.3034 13.2664 36.2027 12.9827C36.1192 12.7346 35.9609 12.5182 35.7492 12.3627C35.6548 12.2688 35.6359 12.1748 35.7303 12.0997C35.9248 11.9585 36.0807 11.7712 36.1838 11.5548C36.2998 11.3213 36.3581 11.0637 36.3539 10.8033V9.78872C36.3571 9.49059 36.3189 9.19345 36.2405 8.90567C36.1685 8.64872 36.0394 8.41114 35.8626 8.21051C35.6786 8.0086 35.453 7.84841 35.2013 7.74079C34.8902 7.61184 34.5558 7.54789 34.2188 7.55291C33.2929 7.53412 32.3859 7.53412 31.4601 7.55291V7.92868C31.4531 8.07245 31.4858 8.21538 31.5546 8.34202C31.6088 8.42442 31.6796 8.49478 31.7624 8.54869C31.8013 8.56275 31.8345 8.58916 31.8569 8.62385C31.8826 8.67651 31.8955 8.73442 31.8947 8.79294V11.7427C31.7775 11.7673 31.6724 11.8311 31.5968 11.9234C31.5211 12.0157 31.4796 12.1309 31.479 12.25C31.4772 12.3676 31.5183 12.4819 31.5947 12.5717C31.6711 12.6616 31.7777 12.7208 31.8947 12.7385V17.2289H33.1984V12.964C33.1984 12.8512 33.2551 12.7761 33.3685 12.7761C33.6519 12.7761 33.9164 12.7761 34.1999 12.7949C34.3173 12.7866 34.435 12.8062 34.5434 12.8519C34.6518 12.8976 34.7477 12.9682 34.8234 13.0579C34.9635 13.2688 35.0299 13.5197 35.0123 13.7719V16.6089C35.0078 16.7811 35.0685 16.9488 35.1824 17.0786C35.2505 17.1422 35.3307 17.1917 35.4183 17.2239C35.506 17.2562 35.5992 17.2707 35.6926 17.2665C36.0705 17.2853 36.4295 17.3041 36.8074 17.3229V16.8156C36.8133 16.6957 36.7801 16.5771 36.7129 16.4774C36.6562 16.4398 36.5806 16.3834 36.505 16.3271ZM35.0312 10.7845C35.0488 11.0367 34.9824 11.2876 34.8423 11.4985C34.7666 11.5881 34.6707 11.6587 34.5623 11.7044C34.4539 11.7502 34.3362 11.7697 34.2188 11.7615C33.9353 11.7615 33.6519 11.7615 33.3685 11.7427C33.3283 11.7388 33.2896 11.726 33.2551 11.7051C33.2378 11.6963 33.2232 11.6829 33.2132 11.6662C33.2032 11.6496 33.1981 11.6306 33.1984 11.6112V8.83052C33.1975 8.80396 33.2024 8.77752 33.2128 8.75304C33.2232 8.72856 33.2388 8.70662 33.2586 8.68875C33.2784 8.67087 33.3018 8.65749 33.3273 8.64953C33.3528 8.64156 33.3798 8.63921 33.4063 8.64263C33.6708 8.64263 33.9353 8.64263 34.1999 8.66142C34.3193 8.65212 34.4391 8.6731 34.5482 8.72239C34.6572 8.77168 34.7519 8.84767 34.8234 8.94325C34.961 9.15524 35.0272 9.4053 35.0123 9.6572V10.7845L35.0312 10.7845Z" fill="white"/>
<path d="M40.6808 13.8658C40.5486 13.9034 40.473 14.0349 40.473 14.2228C40.473 14.2792 40.4919 16.4586 40.4541 16.515C40.4375 16.5333 40.417 16.5479 40.3942 16.5576C40.3714 16.5674 40.3467 16.572 40.3218 16.5713C39.925 16.5338 39.5471 16.4962 39.1504 16.4586C39.1213 16.4583 39.093 16.4491 39.0694 16.4323C39.0457 16.4155 39.0278 16.3919 39.0181 16.3647C38.9946 16.3047 38.9819 16.2411 38.9803 16.1768C38.9803 13.8095 38.9803 11.4421 38.9614 9.05601C38.9587 8.99127 38.9716 8.92684 38.9992 8.86813C39.0215 8.83344 39.0547 8.80703 39.0937 8.79297C39.1765 8.73905 39.2473 8.66869 39.3015 8.5863C39.3808 8.48448 39.421 8.35793 39.4149 8.22932V7.83475C38.678 7.75959 37.9222 7.70323 37.1853 7.66565V8.0602C37.1822 8.19422 37.2219 8.32576 37.2987 8.43597C37.3636 8.515 37.433 8.59028 37.5065 8.66143C37.5443 8.69901 37.5821 8.7178 37.6199 8.75537C37.6474 8.81408 37.6604 8.87852 37.6577 8.94326V11.893C37.5423 11.9065 37.436 11.9619 37.3592 12.0486C37.2825 12.1353 37.2407 12.2472 37.242 12.3627C37.2457 12.4831 37.288 12.5991 37.3628 12.6937C37.4376 12.7884 37.5409 12.8568 37.6577 12.8888V17.3792C38.8291 17.4544 40.0006 17.5671 41.1721 17.6986C41.2666 17.7174 41.3422 17.7174 41.4366 17.7362C41.5096 17.7352 41.5811 17.7158 41.6445 17.6798C41.6805 17.6544 41.7097 17.6205 41.7295 17.5812C41.7493 17.5419 41.759 17.4983 41.7578 17.4544V13.9034C41.5689 13.8846 41.3799 13.8658 41.191 13.8282C41.0201 13.8104 40.8473 13.8231 40.6808 13.8658Z" fill="white"/>
<path d="M11.7149 10.8409C11.7046 10.8396 11.6942 10.8407 11.6844 10.8439C11.6746 10.8472 11.6656 10.8525 11.6582 10.8597H11.6393C10.2788 11.2918 8.91841 11.7615 7.57687 12.2876V12.6634C7.56426 12.7933 7.59055 12.924 7.65245 13.0391C7.67239 13.0734 7.69964 13.103 7.73228 13.1257C7.76492 13.1484 7.80216 13.1638 7.8414 13.1706L7.95477 13.227C7.97656 13.249 7.993 13.2757 8.00282 13.305C8.01265 13.3343 8.0156 13.3655 8.01146 13.3961V16.3271C7.89524 16.3949 7.79799 16.4906 7.72867 16.6055C7.65934 16.7204 7.62014 16.8508 7.61467 16.9847C7.60791 17.0358 7.61408 17.0879 7.63264 17.136C7.6512 17.1842 7.68155 17.2271 7.72095 17.2606C7.76035 17.2942 7.80755 17.3175 7.85828 17.3284C7.909 17.3392 7.96166 17.3373 8.01146 17.3229V21.7945C8.12293 21.7621 8.23061 21.718 8.33268 21.663C8.91842 21.4375 9.50416 21.2309 10.071 21.043C10.3166 20.949 10.5623 20.8739 10.8268 20.7987C11.0158 20.7423 11.2047 20.6672 11.3937 20.6108C11.4692 20.592 11.5448 20.5545 11.6204 20.5357H11.6393C11.6746 20.5241 11.7068 20.5048 11.7338 20.4793C11.7761 20.4466 11.8142 20.4087 11.8471 20.3666C11.906 20.2911 11.939 20.199 11.9416 20.1035V18.7884V17.3792C11.7527 17.4356 11.5826 17.492 11.3937 17.5483C11.2077 17.6014 11.0342 17.6908 10.8835 17.8114C10.8166 17.8649 10.7643 17.9341 10.7313 18.0129C10.6983 18.0917 10.6856 18.1774 10.6945 18.2623C10.6945 18.3187 10.7134 19.6714 10.6756 19.7278C10.6463 19.7797 10.5995 19.8196 10.5434 19.8405C10.3733 19.8969 10.2222 19.9532 10.0521 20.0096L9.3719 20.2351C9.27743 20.2726 9.22074 20.2351 9.22074 20.1035V17.0974C9.21813 17.0411 9.23567 16.9856 9.27026 16.9409C9.30485 16.8962 9.35425 16.8651 9.40969 16.8532C9.91985 16.6653 10.43 16.4962 10.9402 16.3271C10.9956 16.3151 11.045 16.2841 11.0796 16.2393C11.1142 16.1946 11.1317 16.1392 11.1291 16.0828V15.3501C11.1291 15.2749 11.1102 15.2374 11.0536 15.2186C11.0328 15.2093 11.0102 15.2045 10.9874 15.2045C10.9646 15.2045 10.9421 15.2093 10.9213 15.2186C10.4111 15.3877 9.90096 15.5568 9.3908 15.7446C9.25853 15.7822 9.20185 15.7446 9.20185 15.6319V12.9264C9.20034 12.8709 9.22068 12.8169 9.25854 12.7761C9.29633 12.7197 9.33412 12.6821 9.37191 12.6821C9.7876 12.5318 10.1844 12.4003 10.6001 12.2688C10.619 12.2688 10.6379 12.2876 10.6568 12.3064C10.6946 12.344 10.6757 13.7155 10.6757 13.7719C10.6757 13.9785 10.7324 14.0725 10.8646 14.0913C11.038 14.0995 11.2113 14.0739 11.3748 14.0161C11.5637 13.9597 11.7338 13.9034 11.9227 13.847V12.4379V11.0664C11.9229 11.0325 11.9143 10.9991 11.8978 10.9695C11.8812 10.9399 11.8573 10.915 11.8283 10.8973C11.8282 10.8597 11.7716 10.8409 11.7149 10.8409Z" fill="white"/>
<path d="M46.5949 8.90567C46.5875 8.89854 46.5785 8.89315 46.5687 8.8899C46.5589 8.88665 46.5485 8.88561 46.5382 8.88688H46.5193C45.1211 8.62384 43.7229 8.37959 42.3247 8.19171V8.56748C42.3169 8.70925 42.3428 8.85085 42.4002 8.98082C42.4433 9.07627 42.5162 9.15535 42.6081 9.20628L42.7215 9.31901C42.7625 9.37281 42.7826 9.43952 42.7781 9.5069V12.4379C42.7222 12.4389 42.6671 12.4508 42.6159 12.4731C42.5646 12.4954 42.5184 12.5276 42.4797 12.5678C42.4411 12.608 42.4108 12.6554 42.3907 12.7072C42.3706 12.7591 42.361 12.8144 42.3625 12.87C42.3685 12.9919 42.4115 13.1091 42.4856 13.2063C42.5598 13.3035 42.6617 13.3762 42.7781 13.4149V17.8865L43.1182 17.9429L44.9322 18.2247C45.1967 18.2623 45.4423 18.3186 45.7068 18.3562C45.8958 18.3938 46.0847 18.4314 46.2926 18.4689C46.3725 18.492 46.455 18.5047 46.5382 18.5065H46.6516C46.7011 18.5043 46.7481 18.4843 46.7839 18.4501C46.8154 18.426 46.8405 18.3945 46.8569 18.3585C46.8734 18.3225 46.8807 18.283 46.8783 18.2435V15.5004C46.6894 15.4628 46.5004 15.4252 46.3304 15.3876C46.1625 15.3498 45.9881 15.3498 45.8202 15.3876C45.6879 15.4252 45.6313 15.5379 45.6313 15.7446C45.6313 15.801 45.6502 17.1725 45.6124 17.2101C45.5972 17.2295 45.5762 17.2436 45.5524 17.2503C45.5286 17.2571 45.5033 17.2561 45.4801 17.2477C45.31 17.2101 45.14 17.1913 44.9699 17.1537C44.7432 17.1162 44.4976 17.0786 44.2708 17.041C44.1575 17.0222 44.1197 16.9471 44.1197 16.8343V13.8282C44.1197 13.7155 44.1953 13.6591 44.3275 13.6779C44.8566 13.7718 45.3856 13.847 45.9147 13.9597C46.0469 13.9785 46.1036 13.9409 46.1036 13.8094V13.0955C46.1073 13.0631 46.1022 13.0304 46.0889 13.0007C46.0756 12.971 46.0546 12.9453 46.028 12.9264C45.9858 12.8983 45.9416 12.8731 45.8958 12.8512C45.3667 12.7573 44.8566 12.6633 44.3275 12.5694C44.1952 12.5506 44.1197 12.4754 44.1197 12.3627V9.65719C44.119 9.6325 44.1237 9.60794 44.1335 9.58524C44.1433 9.56253 44.1579 9.54221 44.1764 9.52567C44.1942 9.50999 44.2153 9.49847 44.2382 9.49197C44.2611 9.48547 44.2852 9.48415 44.3086 9.4881C44.7243 9.56325 45.1589 9.61962 45.5746 9.71356L45.6313 9.76993C45.6691 9.8263 45.6502 11.1791 45.6502 11.2354C45.6455 11.3171 45.6601 11.3988 45.6929 11.4738C45.7257 11.5489 45.7758 11.6153 45.8391 11.6676C45.9948 11.7636 46.1683 11.8275 46.3493 11.8554C46.5382 11.893 46.7272 11.9306 46.8972 11.9682V9.18749C46.8903 9.10992 46.857 9.03703 46.8028 8.98082C46.7272 8.96203 46.6705 8.92445 46.5949 8.90567Z" fill="white"/>
<path d="M22.315 38.3658L23.2408 39.2489C23.341 39.3228 23.4222 39.4192 23.478 39.5302C23.5338 39.6411 23.5626 39.7636 23.562 39.8877C23.5349 40.0318 23.462 40.1635 23.3542 40.2634C23.252 40.3785 23.1107 40.4521 22.9574 40.4701C22.6929 40.5077 22.5039 40.3386 22.315 40.1507L21.7859 39.6434L21.2379 40.2071L20.86 39.8501L22.315 38.3658ZM22.0315 39.3804L22.5039 39.8313C22.6173 39.944 22.7873 40.1131 22.9763 39.9065C23.0072 39.8777 23.0316 39.8427 23.0479 39.8038C23.0641 39.7649 23.0719 39.7231 23.0708 39.681C23.0708 39.587 23.0141 39.5307 22.844 39.3804L22.4283 38.967L22.0315 39.3804Z" fill="white"/>
<path d="M24.7901 40.5077L26.4529 41.5034L26.2639 41.8228L25.0547 41.0901L24.809 41.4847L25.9805 42.1798L25.7916 42.4992L24.6201 41.8041L24.3556 42.2362L25.6215 42.9877L25.4326 43.3071L23.7131 42.2926L24.7901 40.5077Z" fill="white"/>
<path d="M27.6811 42.0483L28.1724 42.2174L27.6433 43.8144L28.7392 44.1714L28.6259 44.5284L27.0387 44.0023L27.6811 42.0483Z" fill="white"/>
<path d="M30.5342 42.8186L31.0444 42.8938L30.7232 44.9417L30.213 44.8666L30.5342 42.8186Z" fill="white"/>
<path d="M34.9556 44.3217C34.9195 44.4926 34.8342 44.6492 34.71 44.7726C34.4459 45.0087 34.1014 45.1363 33.7464 45.1296C33.0095 45.1672 32.4804 44.7914 32.4426 44.0775C32.4048 43.3071 33.0284 42.9502 33.6708 42.9314C33.9164 42.9126 34.5966 42.9502 34.8989 43.5326L34.3321 43.6265C34.2652 43.5206 34.169 43.4359 34.0552 43.3826C33.9413 43.3294 33.8145 43.3097 33.6897 43.3259C33.5925 43.3272 33.4965 43.3478 33.4075 43.3866C33.3184 43.4253 33.2381 43.4814 33.1711 43.5515C33.1042 43.6216 33.0521 43.7043 33.0179 43.7948C32.9836 43.8852 32.9679 43.9816 32.9717 44.0782C32.9755 44.1748 32.9987 44.2696 33.0399 44.3572C33.0811 44.4447 33.1396 44.5231 33.2118 44.5879C33.284 44.6526 33.3685 44.7023 33.4603 44.734C33.5521 44.7657 33.6494 44.7789 33.7464 44.7726C33.8837 44.7802 34.0198 44.7442 34.1352 44.6699C34.2507 44.5957 34.3394 44.4869 34.3888 44.3593L34.9556 44.3217Z" fill="white"/>
<path d="M36.8073 42.518L37.3553 42.3677L38.9047 44.0775L38.3378 44.2465L38.0544 43.9271L37.0341 44.2278L36.9774 44.6599L36.4294 44.829L36.8073 42.518ZM37.2986 43.0253C37.2753 43.0039 37.2561 42.9784 37.2419 42.9501C37.2304 42.9412 37.221 42.9298 37.2145 42.9168C37.2079 42.9038 37.2044 42.8895 37.2041 42.875V43.0441L37.0908 43.7956L37.7899 43.589L37.2986 43.0253Z" fill="white"/>
<path d="M39.3582 41.5974L39.8116 41.3344L41.2854 41.8041C41.4744 41.8604 41.4933 41.8792 41.7011 41.9544C41.5878 41.7853 41.55 41.7477 41.4555 41.5974L40.9075 40.6956L41.3421 40.4325L42.4191 42.2174L41.9468 42.4617L40.4541 41.992C40.3029 41.9356 40.2273 41.9168 40.0573 41.8417C40.1311 41.9347 40.1945 42.0355 40.2462 42.1423L40.832 43.1193L40.3974 43.3635L39.3582 41.5974Z" fill="white"/>
<path d="M43.6473 40.3386C43.7809 40.3681 43.92 40.361 44.0498 40.318C44.1796 40.275 44.2952 40.1977 44.3842 40.0943C44.4787 40.0004 44.7432 39.7185 44.5732 39.5307C44.4598 39.4179 44.3464 39.4931 44.252 39.5682C44.1764 39.6058 43.8174 39.8689 43.7418 39.9252C43.5717 40.038 43.1749 40.301 42.8348 39.9628C42.76 39.8914 42.7075 39.8001 42.6837 39.6998C42.6081 39.3804 42.8348 39.061 43.0805 38.8355C43.2653 38.6481 43.4918 38.5065 43.7418 38.4222C43.8967 38.3823 44.0593 38.3823 44.2142 38.4222L43.9496 38.8543C43.8707 38.8236 43.783 38.8236 43.704 38.8543C43.574 38.9119 43.4531 38.9878 43.345 39.0797C43.1749 39.23 43.0427 39.4367 43.1749 39.5682C43.2694 39.6622 43.3828 39.6058 43.5151 39.5307C43.5906 39.4931 43.9496 39.2488 44.0252 39.1925C44.2331 39.0609 44.5921 38.8355 44.9133 39.1549C45.3857 39.6246 44.8188 40.207 44.6299 40.3761C44.3842 40.6204 43.9685 40.9398 43.4017 40.7519L43.6473 40.3386Z" fill="white"/>
<path d="M30.572 30.4183C30.572 30.4183 23.1085 27.9383 26.3584 20.0284C26.3584 20.0284 18.4604 20.3478 7.65246 24.6879C7.65246 24.6879 6.89666 25.0073 6.44318 25.1576C6.09952 25.3093 5.72619 25.3829 5.35033 25.3731C4.97446 25.3634 4.60551 25.2705 4.27026 25.1012C4.27026 25.1012 14.1523 19.9532 26.8686 18.7695C28.5502 18.6192 28.7581 18.8635 28.3235 19.4835C27.9645 20.0284 23.4297 25.7588 30.572 30.4183Z" fill="white"/>
<path d="M23.9399 22.2642C17.5534 23.0909 11.2992 25.3079 11.2992 25.3079C12.3573 27.1867 15.2482 26.3976 15.2482 26.3976C20.6711 24.8758 23.0896 24.3497 23.8643 24.1994C23.8255 23.5534 23.8508 22.9052 23.9399 22.2642Z" fill="#8C734B"/>
<path d="M23.9777 25.3643C20.5611 26.0451 17.2009 26.9809 13.9256 28.1637C13.9256 28.1637 15.3427 29.7795 18.177 28.9716C20.5577 28.2952 23.5998 27.337 24.5068 27.0364C24.2689 26.5001 24.0915 25.9393 23.9777 25.3643Z" fill="#8C734B"/>
<path d="M24.9791 27.9383C24.0155 28.2389 19.1973 29.7983 17.1566 30.5874C17.1566 30.5874 18.3281 32.1468 21.6914 30.8317C24.0344 29.911 25.3381 29.3662 25.905 29.1407C25.5565 28.7719 25.2463 28.369 24.9791 27.9383Z" fill="#8C734B"/>
<path d="M26.6608 29.7983C25.8105 30.1553 22.6928 31.5268 20.8789 32.3911C20.8789 32.3911 23.1652 33.4996 26.0183 31.7523L27.7945 30.5874C27.3963 30.3544 27.0172 30.0906 26.6608 29.7983Z" fill="#8C734B"/>
<path d="M28.6636 31.0383C28.0968 31.3953 25.716 32.8796 24.5634 33.7251C24.5634 33.7251 26.5285 34.533 28.5502 32.6353C29.2116 32.0153 29.5706 31.6771 29.7595 31.4705C29.3861 31.3477 29.0202 31.2034 28.6636 31.0383Z" fill="#8C734B"/>
<path d="M35.3713 30.4183C35.3713 30.4183 42.8348 27.9383 39.5849 20.0284C39.5849 20.0284 47.483 20.3478 58.2909 24.6879C58.2909 24.6879 59.0467 25.0073 59.5002 25.1576C59.8438 25.3093 60.2172 25.3829 60.593 25.3731C60.9689 25.3634 61.3378 25.2705 61.6731 25.1012C61.6731 25.1012 51.791 19.9532 39.0747 18.7695C37.3931 18.6192 37.1852 18.8635 37.6198 19.4835C37.9788 20.0284 42.5136 25.7588 35.3713 30.4183Z" fill="white"/>
<path d="M42.0035 22.2642C48.39 23.0909 54.6442 25.3079 54.6442 25.3079C53.5861 27.1867 50.6952 26.3976 50.6952 26.3976C45.2723 24.8758 42.8537 24.3497 42.0791 24.1994C42.1179 23.5534 42.0926 22.9052 42.0035 22.2642Z" fill="#8C734B"/>
<path d="M41.9656 25.3643C45.3823 26.0451 48.7425 26.9809 52.0177 28.1637C52.0177 28.1637 50.6006 29.7795 47.7664 28.9716C45.3856 28.2952 42.3435 27.337 41.4366 27.0364C41.6744 26.5001 41.8518 25.9393 41.9656 25.3643Z" fill="#8C734B"/>
<path d="M40.9642 27.9383C41.9279 28.2389 46.7461 29.7983 48.7867 30.5874C48.7867 30.5874 47.6153 32.1468 44.252 30.8317C41.909 29.911 40.6052 29.3662 40.0384 29.1407C40.3869 28.7719 40.6971 28.369 40.9642 27.9383Z" fill="#8C734B"/>
<path d="M39.2826 29.7983C40.1328 30.1553 43.2505 31.5268 45.0644 32.3911C45.0644 32.3911 42.7781 33.4996 39.925 31.7523L38.1489 30.5874C38.547 30.3544 38.9261 30.0906 39.2826 29.7983Z" fill="#8C734B"/>
<path d="M37.2797 31.0383C37.8466 31.3953 40.2273 32.8796 41.3799 33.7251C41.3799 33.7251 39.4149 34.533 37.3931 32.6353C36.7318 32.0153 36.3728 31.6771 36.1838 31.4705C36.5239 31.3577 36.9018 31.2074 37.2797 31.0383Z" fill="#8C734B"/>
<path d="M39.0747 34.7209C39.0747 35.9211 38.7168 37.0944 38.0462 38.0924C37.3756 39.0904 36.4224 39.8682 35.3072 40.3275C34.192 40.7869 32.9649 40.907 31.781 40.6729C30.5971 40.4387 29.5097 39.8607 28.6561 39.012C27.8026 38.1633 27.2214 37.082 26.9859 35.9048C26.7504 34.7276 26.8712 33.5074 27.3332 32.3985C27.7951 31.2896 28.5773 30.3418 29.581 29.675C30.5846 29.0081 31.7646 28.6522 32.9717 28.6522C33.7732 28.6519 34.567 28.8086 35.3076 29.1134C36.0482 29.4183 36.7212 29.8653 37.288 30.4289C37.8548 30.9925 38.3043 31.6616 38.6109 32.3981C38.9175 33.1345 39.0751 33.9238 39.0747 34.7209Z" fill="white"/>
<path d="M37.8088 35.9797C37.8088 36.931 37.5251 37.8609 36.9936 38.6519C36.4621 39.4428 35.7066 40.0593 34.8228 40.4234C33.9389 40.7874 32.9663 40.8827 32.028 40.6971C31.0897 40.5115 30.2278 40.0534 29.5513 39.3807C28.8749 38.7081 28.4142 37.851 28.2275 36.918C28.0409 35.985 28.1367 35.0179 28.5028 34.139C28.8689 33.2602 29.4889 32.509 30.2843 31.9805C31.0798 31.452 32.015 31.1699 32.9717 31.1699C34.2535 31.1734 35.4818 31.6812 36.3881 32.5825C37.2945 33.4838 37.8053 34.7051 37.8088 35.9797Z" fill="#8C734B"/>
<path d="M32.9717 28.1825C31.6674 28.1825 30.3925 28.5671 29.308 29.2876C28.2236 30.0081 27.3784 31.0322 26.8793 32.2303C26.3802 33.4285 26.2496 34.7469 26.504 36.0189C26.7585 37.2908 27.3865 38.4592 28.3088 39.3762C29.231 40.2933 30.406 40.9178 31.6852 41.1708C32.9643 41.4238 34.2902 41.2939 35.4952 40.7976C36.7002 40.3013 37.7301 39.4609 38.4546 38.3826C39.1792 37.3043 39.566 36.0365 39.566 34.7396C39.5644 33.0011 38.8691 31.3342 37.6328 30.1048C36.3965 28.8754 34.7201 28.1841 32.9717 28.1825ZM38.5079 33.6687C38.3021 34.4556 37.9314 35.1905 37.4202 35.8251C36.909 36.4597 36.2687 36.9797 35.5414 37.3512C35.6547 36.5433 36.0137 35.7542 36.3727 34.9275C36.9018 33.7251 37.4875 32.4287 37.223 31.0384C37.8722 31.7904 38.3148 32.6965 38.5079 33.6687L38.5079 33.6687ZM30.0807 29.9299C30.8362 29.4864 31.682 29.2168 32.556 29.1407V37.9525C32.1135 37.9201 31.6762 37.8382 31.2522 37.7082C31.2144 36.6185 30.761 35.6039 30.3075 34.6081C29.5895 32.9548 28.9659 31.5268 30.0807 29.9299ZM31.2144 38.5349C31.6604 38.6495 32.1156 38.725 32.5749 38.7604V40.3198C31.8518 40.268 31.1458 40.0766 30.4964 39.7561C30.861 39.4359 31.1126 39.0079 31.2144 38.5349V38.5349ZM33.3873 38.7604C33.8487 38.7434 34.3059 38.6676 34.7478 38.5349C34.8496 39.0079 35.1012 39.4359 35.4658 39.7561C34.8132 40.0681 34.1089 40.2591 33.3873 40.3198V38.7604ZM34.6911 37.7082C34.2694 37.8471 33.8309 37.9293 33.3874 37.9525V29.1407C34.2654 29.1962 35.1158 29.4674 35.8626 29.9299C36.9774 31.5269 36.3539 32.9736 35.617 34.6081C35.1824 35.6039 34.7289 36.6185 34.6911 37.7082V37.7082ZM28.7203 31.0572C28.4747 32.4475 29.0415 33.7439 29.5706 34.9463C29.9296 35.773 30.2886 36.5809 30.4019 37.3888C29.6665 37.0236 29.02 36.5032 28.5076 35.8639C27.9952 35.2247 27.6293 34.4819 27.4354 33.6875C27.6166 32.7113 28.0607 31.8023 28.7203 31.0571V31.0572ZM27.4165 35.7166C28.1226 36.8615 29.1739 37.7557 30.4208 38.2719C30.4238 38.3104 30.4173 38.3491 30.4019 38.3846C30.3452 38.7979 29.9863 39.1361 29.7406 39.324C28.5178 38.4734 27.6825 37.1768 27.4165 35.7166ZM36.1838 39.324C35.8595 39.0976 35.6254 38.7651 35.5225 38.3846C35.5255 38.346 35.519 38.3074 35.5036 38.2719C36.7467 37.7496 37.7963 36.8568 38.5079 35.7166C38.38 36.441 38.1087 37.1329 37.7097 37.7521C37.3107 38.3714 36.7921 38.9057 36.1838 39.324H36.1838Z" fill="#0A2240"/>
<path d="M34.9368 19.6714C34.9368 19.6714 34.8801 19.8781 34.7667 19.8781C34.3144 19.7258 33.8778 19.5307 33.463 19.2956C33.2929 19.2017 33.0662 19.0702 32.9906 19.0326C32.9906 19.0326 32.6505 19.2017 32.4993 19.2956C32.0845 19.5307 31.6479 19.7258 31.1956 19.8781C31.0633 19.8781 31.0255 19.6714 31.0255 19.6714C31.0255 19.6714 28.9471 20.9114 28.9471 24.3497C28.9471 26.9049 30.2886 28.0698 30.2886 28.0698L30.4776 28.8025H35.5036L35.6926 28.0698C35.6926 28.0698 37.0341 26.9049 37.0341 24.3497C36.9963 20.9302 34.9368 19.6714 34.9368 19.6714Z" fill="#0A2240"/>
<path d="M35.9193 23.5042C35.9305 22.6066 35.6075 21.7367 35.0123 21.0617C35.0123 21.0617 34.9934 21.3623 34.4833 21.0242C34.0392 20.7182 33.5119 20.5544 32.9717 20.5544C32.4256 20.5543 31.8922 20.718 31.4412 21.0242C30.9499 21.3623 30.931 21.0617 30.931 21.0617C30.339 21.7385 30.0164 22.6073 30.0241 23.5042C30.0241 24.3873 30.2508 24.8194 30.3264 24.9509C30.5048 25.5042 30.8544 25.9874 31.3253 26.3315C31.7961 26.6756 32.3642 26.8631 32.9485 26.8673C33.5329 26.8714 34.1036 26.692 34.5794 26.3547C35.0551 26.0173 35.4116 25.5392 35.5981 24.9885C35.6358 24.9321 35.9193 24.5188 35.9193 23.5042Z" fill="white"/>
<path d="M34.0865 25.8903C33.9983 25.7391 33.9671 25.5616 33.9982 25.3896C34.0293 25.2176 34.1209 25.0621 34.2565 24.9509C34.2565 24.9509 35.3524 25.1764 35.3713 23.7485C35.3746 23.5892 35.4202 23.4336 35.5036 23.2975C35.5036 23.2975 35.2201 23.0533 34.6155 23.5042C34.0109 23.9551 33.6897 25.2327 33.3495 24.9321C33.0283 24.6315 33.1417 22.9594 32.9717 22.903C32.8016 22.9594 32.915 24.6315 32.5937 24.9321C32.2725 25.2327 31.9324 23.9551 31.3278 23.5042C30.7232 23.0533 30.4397 23.2975 30.4397 23.2975C30.5231 23.4336 30.5687 23.5892 30.572 23.7485C30.5909 25.1764 31.6868 24.9509 31.6868 24.9509C31.8186 25.0603 31.9092 25.211 31.9435 25.3783C31.9778 25.5456 31.9539 25.7195 31.8757 25.8715C31.8758 25.874 31.8753 25.8765 31.8744 25.8788C31.8735 25.8811 31.8721 25.8832 31.8703 25.8849C31.8686 25.8867 31.8665 25.8881 31.8641 25.889C31.8618 25.8899 31.8593 25.8904 31.8568 25.8903C30.5531 24.5 29.7973 24.6879 30.1752 26.2473C30.5342 27.7692 31.9513 34.3075 32.1592 35.8294C32.1214 37.2009 31.9702 37.6894 31.9324 37.7833L31.8002 38.0652L31.9513 38.3846C32.1414 38.6672 32.2998 38.9696 32.4237 39.2864L32.9528 40.6392L33.4818 39.2864C33.6046 38.9631 33.763 38.6544 33.9542 38.3658L34.1242 38.0652L33.9731 37.7646C33.9353 37.6706 33.7841 37.2009 33.7463 35.8857C33.9353 34.533 35.3713 27.7879 35.7303 26.2285C36.1271 24.7067 35.3713 24.5188 34.0865 25.8903Z" fill="#0A2240"/>
<path d="M32.0837 32.7105C31.6113 30.268 31.2523 28.4831 30.95 27.168C30.7232 26.1722 31.3279 26.5667 31.6491 27.1867L32.0837 32.7105Z" fill="#CE0E2D"/>
<path d="M33.8597 32.7105C34.3321 30.268 34.6911 28.4831 34.9934 27.168C35.2202 26.1722 34.6155 26.5667 34.2943 27.1867L33.8597 32.7105Z" fill="#CE0E2D"/>
<path d="M31.3656 24.4812C31.3432 24.4773 31.322 24.4685 31.3035 24.4553C31.285 24.4421 31.2697 24.425 31.2588 24.4051C31.2479 24.3852 31.2417 24.3632 31.2405 24.3406C31.2394 24.318 31.2434 24.2954 31.2523 24.2746C31.2712 24.237 31.2901 24.2182 31.309 24.1806C31.2423 24.1026 31.1662 24.0332 31.0822 23.9739C31.0822 23.9739 30.9311 24.6691 31.5546 24.594C31.5344 24.5415 31.5091 24.4912 31.479 24.4436C31.4601 24.4812 31.4034 24.4812 31.3656 24.4812Z" fill="#CE0E2D"/>
<path d="M34.8612 23.9739C34.7769 24.0328 34.7007 24.1022 34.6345 24.1806C34.6639 24.2043 34.684 24.2376 34.6912 24.2746C34.7009 24.3168 34.6947 24.3612 34.6738 24.3992C34.653 24.4373 34.6188 24.4665 34.5778 24.4812C34.5556 24.4874 34.5324 24.4889 34.5097 24.4857C34.4869 24.4824 34.465 24.4745 34.4455 24.4624C34.4154 24.51 34.3901 24.5603 34.3699 24.6128C35.0124 24.6879 34.8612 23.9739 34.8612 23.9739Z" fill="#CE0E2D"/>
<path d="M33.274 33.6123C33.4819 29.8547 33.7842 27.1867 33.7842 26.8485C33.7804 26.7029 33.7614 26.5581 33.7275 26.4164L33.5007 27.1304L33.4252 25.8715C33.297 25.7107 33.1439 25.5712 32.9717 25.4582H32.9528C32.7904 25.5765 32.6443 25.7155 32.5182 25.8715L32.4426 27.1304L32.2159 26.4164C32.1726 26.5562 32.1534 26.7023 32.1592 26.8485C32.1592 27.1867 32.4615 29.8359 32.6694 33.6123C32.8772 37.37 32.4048 38.0652 32.4048 38.0652C32.6191 38.4149 32.8085 38.779 32.9717 39.1549C33.1349 38.779 33.3243 38.4149 33.5385 38.0652C33.5385 38.084 33.0662 37.3888 33.274 33.6123Z" fill="#CE0E2D"/>
</g>
<defs>
<clipPath id="clip0_5_200">
<rect width="66" height="49" fill="white"/>
</clipPath>
</defs>
</svg>
